<?xml version="1.0" encoding="utf-8"?>
<!-- Generator: Adobe Illustrator 27.5.0, SVG Export Plug-In . SVG Version: 6.00 Build 0)  -->
<svg version="1.1" id="Ñëîé_1" xmlns="http://www.w3.org/2000/svg" xmlns:xlink="http://www.w3.org/1999/xlink" x="0px" y="0px"
	 viewBox="0 0 2600 2000" style="enable-background:new 0 0 2600 2000;" xml:space="preserve">
<rect id="_x36_" style="fill:#FFFFFF;" width="2600" height="2000"/>
<g>
	<g id="_x35_">
		<path style="fill:#DCE6FF;" d="M315.031,1564.236c-4.684-13.776-9.318-28.05-13.773-42.425l10.98-3.135
			c4.426,14.282,9.03,28.464,13.683,42.147L315.031,1564.236z M2279.379,1546.446l-11.369-1.348
			c1.888-14.664,3.68-29.433,5.328-43.895l11.388,1.196C2283.072,1516.913,2281.273,1531.732,2279.379,1546.446z M288.611,1479.078
			c-4.01-14.207-7.898-28.678-11.558-43.012l11.126-2.617c3.638,14.247,7.503,28.631,11.488,42.753L288.611,1479.078z
			 M2289.416,1458.282l-11.404-1.034c1.449-14.723,2.792-29.533,3.989-44.018l11.419,0.868
			C2292.219,1428.639,2290.871,1443.504,2289.416,1458.282z M266.586,1392.802c-3.309-14.474-6.457-29.109-9.357-43.501
			l11.247-2.088c2.882,14.301,6.011,28.847,9.299,43.231L266.586,1392.802z M2296.708,1369.854l-11.433-0.694
			c0.97-14.713,1.821-29.554,2.527-44.109l11.442,0.512C2298.535,1340.179,2297.682,1355.08,2296.708,1369.854z M249.019,1305.585
			c-2.548-14.652-4.906-29.425-7.01-43.913l11.346-1.517c2.09,14.39,4.433,29.066,6.963,43.621L249.019,1305.585z M2300.994,1281.23
			l-11.451-0.319c0.447-14.778,0.755-29.635,0.916-44.158l11.455,0.116C2301.752,1251.46,2301.444,1266.385,2300.994,1281.23z
			 M236.261,1217.582c-1.708-14.799-3.194-29.682-4.419-44.238l11.418-0.885c1.216,14.447,2.691,29.221,4.386,43.912
			L236.261,1217.582z M2290.506,1192.592c-0.135-14.789-0.428-29.641-0.87-44.144l11.451-0.321
			c0.444,14.578,0.739,29.505,0.875,44.369L2290.506,1192.592z M228.839,1128.99c-0.76-14.886-1.263-29.831-1.498-44.421
			l11.454-0.17c0.232,14.468,0.732,29.289,1.485,44.053L228.839,1128.99z M2287.795,1104.343
			c-0.786-14.77-1.754-29.589-2.873-44.047l11.423-0.816c1.127,14.542,2.099,29.447,2.891,44.301L2287.795,1104.343z
			 M238.904,1040.329l-11.453-0.226c0.319-14.925,0.934-29.875,1.829-44.432l11.436,0.647
			C239.829,1010.736,239.219,1025.543,238.904,1040.329z M2280.947,1016.337c-1.53-14.766-3.263-29.516-5.15-43.838l11.365-1.379
			c1.899,14.418,3.644,29.265,5.185,44.128L2280.947,1016.337z M244.348,952.422l-11.398-1.099
			c1.556-14.869,3.453-29.731,5.639-44.172l11.337,1.581C247.763,923.014,245.886,937.714,244.348,952.422z M2269.384,928.83
			c-2.383-14.674-5-29.292-7.776-43.449l11.257-2.035c2.8,14.27,5.437,29.003,7.839,43.79L2269.384,928.83z M914.559,927.278
			c-15.918-2.409-27.432-9.364-43.381-21.375l7.241-8.521c13.972,10.494,24.063,16.789,37.36,18.962L914.559,927.278z
			 M954.304,901.117l-10.202-5.001c5.244-9.857,9.88-23.534,13.779-40.653l11.191,2.348
			C964.906,876.106,960.075,890.271,954.304,901.117z M837.558,874.368c-9.126-9.755-18.878-20.981-29.814-34.321l9.002-6.8
			c10.782,13.151,20.378,24.198,29.336,33.774L837.558,874.368z M257.576,865.35l-11.246-2.095
			c2.968-14.676,6.326-29.31,9.98-43.496l11.121,2.64C263.823,836.405,260.507,850.856,257.576,865.35z M2252.348,842.218
			c-3.392-14.523-7.052-28.92-10.877-42.792l11.076-2.813c3.862,14.007,7.555,28.541,10.978,43.2L2252.348,842.218z M976.78,813.559
			l-11.362-1.403c1.759-13.125,3.336-27.497,4.82-43.939l11.413,0.95C980.153,785.761,978.56,800.282,976.78,813.559z
			 M779.686,804.622c-9.312-12.071-18.97-24.83-27.292-35.841l9.273-6.457c8.306,10.99,17.945,23.724,27.226,35.755L779.686,804.622
			z M1618.374,803.718c-8.921,0-17.675-2.558-26.016-7.604l6.108-9.303c12.531,7.593,24.858,7.609,38.168,1.554l4.929,9.926
			C1633.692,801.892,1625.891,803.718,1618.374,803.718z M279.617,780.026l-10.955-3.215c4.552-14.287,9.545-28.496,14.843-42.232
			l10.743,3.817C289.026,751.934,284.104,765.941,279.617,780.026z M1679.022,769.544l-8.417-7.459
			c8.686-9.029,17.997-20.167,28.465-34.051l9.281,6.447C1697.612,748.721,1688.02,760.191,1679.022,769.544z M1559.785,761.983
			c-7.413-10.978-14.76-23.905-22.46-39.521l10.354-4.704c7.481,15.17,14.584,27.68,21.719,38.244L1559.785,761.983z
			 M2228.815,757.114c-4.615-14.247-9.539-28.271-14.636-41.684l10.762-3.768c5.16,13.578,10.144,27.772,14.813,42.188
			L2228.815,757.114z M725.246,732.933c-10.481-13.748-19.215-25.036-27.488-35.521l9.133-6.638
			c8.311,10.534,17.081,21.867,27.601,35.666L725.246,732.933z M985.098,724.761l-11.432-0.71
			c0.868-12.883,1.752-27.362,2.701-44.266l11.439,0.592C986.854,697.32,985.969,711.838,985.098,724.761z M311.419,697.693
			l-10.481-4.439c6.289-13.671,12.99-27.095,20.111-40.222l10.158,5.083C324.2,671.031,317.607,684.24,311.419,697.693z
			 M1734.595,697.69l-9.572-6.042c8.141-11.879,16.55-24.466,25.061-37.181l9.637,5.944
			C1751.189,673.16,1742.771,685.757,1734.595,697.69z M1518.885,681.429c-5.189-12.492-10.551-26.122-16.392-41.667l10.775-3.731
			c5.799,15.43,11.116,28.948,16.258,41.326L1518.885,681.429z M2197.327,674.571c-6.159-13.77-12.674-27.146-19.364-39.757
			l10.209-4.989c6.802,12.823,13.424,26.418,19.681,40.408L2197.327,674.571z M669.473,662.571
			c-10.395-12.385-20.07-23.407-29.58-33.698l8.57-7.296c9.63,10.422,19.421,21.574,29.931,34.096L669.473,662.571z
			 M990.189,636.022l-11.441-0.554c0.772-14.69,1.538-29.387,2.356-44.343l11.44,0.577
			C991.727,606.65,990.96,621.339,990.189,636.022z M1784.836,623.275l-9.557-6.063c9.571-13.901,18.131-25.925,26.171-36.76
			l9.33,6.378C1802.819,597.56,1794.333,609.481,1784.836,623.275z M353.925,620.172l-9.655-5.918
			c9.002-13.532,18.284-25.754,27.587-36.325l8.751,7.095C371.632,595.224,362.655,607.05,353.925,620.172z M1487.197,597.802
			c-5.254-14.777-10.408-29.562-14.757-42.076l10.867-3.479c4.343,12.497,9.489,27.259,14.732,42.004L1487.197,597.802z
			 M608.397,597.032c-11.708-10.942-23.221-20.607-34.217-28.729l6.986-8.714c11.347,8.38,23.198,18.328,35.223,29.565
			L608.397,597.032z M2155.722,596.562c-8.208-12.857-16.815-25.016-25.581-36.141l9.136-6.633
			c8.99,11.41,17.81,23.868,26.211,37.029L2155.722,596.562z M412.74,555.109l-6.948-8.742c13.68-10.017,27.918-17.24,42.318-21.47
			l3.352,10.515C438.364,539.259,425.337,545.886,412.74,555.109z M1838.411,551.746l-8.899-6.923
			c10.743-12.724,20.923-23.672,31.122-33.47l8.103,7.771C1858.822,528.651,1848.902,539.322,1838.411,551.746z M995.111,547.423
			l-11.435-0.654c0.992-15.983,1.977-30.497,3.011-44.372l11.426,0.785C997.082,517.013,996.1,531.485,995.111,547.423z
			 M536.305,545.121c-14.295-6.828-28.355-11.186-41.79-12.953l1.555-10.894c14.672,1.93,29.926,6.641,45.338,14.003
			L536.305,545.121z M2100.672,527.347c-11.028-10.845-22.448-20.418-33.939-28.453l6.745-8.888
			c12.009,8.396,23.917,18.375,35.393,29.66L2100.672,527.347z M1457.828,513.651c-5.699-16.36-10.395-29.699-14.779-41.98
			l10.836-3.565c4.395,12.308,9.1,25.672,14.807,42.058L1457.828,513.651z M1903.021,491.056l-6.566-9.01
			c14.088-9.461,28.318-16.467,42.295-20.824l3.538,10.458C1929.392,475.701,1916.181,482.22,1903.021,491.056z M2028.015,477.586
			c-14.188-5.744-28.549-9.299-42.685-10.566l1.065-10.948c15.303,1.372,30.804,5.202,46.072,11.383L2028.015,477.586z
			 M1001.778,459.037l-11.411-0.973c1.428-15.427,2.981-30.327,4.616-44.284l11.384,1.229
			C1004.741,428.882,1003.197,443.694,1001.778,459.037z M1427.807,429.85c-5.536-14.83-10.751-28.387-15.948-41.443l10.702-3.923
			c5.224,13.128,10.467,26.755,16.03,41.658L1427.807,429.85z M1012.199,371.165l-11.338-1.573c2.317-15.395,4.864-30.2,7.57-44.003
			l11.258,2.033C1017.013,341.273,1014.493,355.923,1012.199,371.165z M1394.841,347.352c-6.155-14.212-12.359-27.809-18.443-40.414
			l10.395-4.621c6.146,12.736,12.412,26.468,18.626,40.814L1394.841,347.352z M1029.417,284.594l-11.114-2.665
			c3.995-15.354,8.4-29.817,13.092-42.986l10.839,3.557C1037.647,255.377,1033.335,269.539,1029.417,284.594z M1356.054,267.477
			c-7.534-13.62-15.231-26.406-22.875-38.003l9.68-5.879c7.799,11.832,15.642,24.861,23.314,38.726L1356.054,267.477z
			 M1059.438,202.215l-10.273-4.866c7.522-14.629,15.863-27.563,24.793-38.445l8.999,6.804
			C1074.521,175.988,1066.608,188.271,1059.438,202.215z M1306.923,193.811c-10.01-12.044-20.341-22.714-30.707-31.711l7.685-8.155
			c10.824,9.395,21.583,20.502,31.978,33.01L1306.923,193.811z M1114.918,137.208l-6.176-9.261
			c13.57-8.336,28.522-13.758,44.439-16.111l1.744,10.867C1140.596,124.822,1127.135,129.702,1114.918,137.208z M1240.073,137.201
			c-13.344-6.905-27.245-11.626-41.315-14.031l2.008-10.826c15.271,2.611,30.325,7.717,44.743,15.178L1240.073,137.201z"/>
		<path style="fill:#D4E8FF;" d="M533.33,1623.582c0,0-279.002-729.529-78.223-891.977
			c134.202-108.581,276.449,130.78,446.231,4.153c151.154-112.734,103.101-455.717,344.17-503.124
			c271.039-53.301,330.718,586.409,553.148,498.971c269.904-106.1,538.387,109.284,306.368,893.37L533.33,1623.582z"/>
		<path style="fill:#EEF7FF;" d="M2351.978,1272.785c-95.063-20.862-79.55,167.619-215.055,167.619
			c-123.891,0-163.527-717.775-253.669-512.594c-462.12,1051.88-193.775-447.331-561.292-466.383
			c-166.181-8.615-276.915,253.742-317.75,718.255c-59.193,419.937-196.468-320.292-337.74-251.468
			c-89.786,43.742-79.503,512.189-203.394,512.189c-135.505,0-119.992-188.482-215.055-167.619
			c-102.35,22.462-132.921,356.071-132.921,356.071h2369.796C2484.898,1628.856,2454.328,1295.247,2351.978,1272.785z"/>
		<path style="fill:#DCE6FF;" d="M2267.794,1494.567c-87.455-7.868-73.184,63.216-197.845,63.216
			c-113.977,0-110.845-159.31-187.117-193.168c-140.46-62.351-256.257,253.215-310.713,94.839
			c-103.426-420.24-405.075-630.988-544.237,0c-54.456,158.376-181.8-124.223-310.713-94.839
			c-79.351,18.087-73.14,193.168-187.118,193.168c-124.661,0-110.39-71.084-197.845-63.216
			c-94.16,8.471-122.284,134.29-122.284,134.29h2180.156C2390.078,1628.856,2361.954,1503.038,2267.794,1494.567z"/>
		<path style="fill:#CFDDF9;" d="M115.102,1624.975c0,0-14.864,64.054,54.015,79.119c94.212,20.606,647.225,74.747,512.879,115.888
			c-75.839,23.224,38.715,54.76,408.105,66.372c369.39,11.612,1003.234-33.887,790.082-101.208
			c-213.152-67.322,657.615-16.257,604.716-156.29L115.102,1624.975z"/>
	</g>
	<g id="_x34_">
		<path style="fill:#10325B;" d="M2181.851,754.207c-0.303,0-0.549-0.244-0.551-0.547l-0.369-44.227
			c-0.003-0.304,0.242-0.553,0.546-0.556c0.002,0,0.004,0,0.005,0c0.303,0,0.549,0.244,0.551,0.547l0.369,44.227
			c0.003,0.304-0.242,0.553-0.546,0.556C2181.854,754.207,2181.852,754.207,2181.851,754.207z"/>
		<path style="fill:#10325B;" d="M2183.198,782.817c-0.294,0-0.538-0.232-0.551-0.527l-1.329-30.481
			c-0.013-0.292,0.204-0.542,0.494-0.572c0.288-0.034,0.553,0.171,0.601,0.46l4.747,29.241c0.049,0.3-0.155,0.583-0.456,0.632
			c-0.294,0.048-0.583-0.155-0.632-0.456l-3.244-19.981l0.921,21.108c0.013,0.304-0.223,0.562-0.526,0.575
			C2183.214,782.817,2183.206,782.817,2183.198,782.817z"/>
		<path style="fill:#10325B;" d="M2179.387,782.883c-0.016,0-0.03,0-0.046-0.002c-0.303-0.024-0.529-0.29-0.505-0.594l1.647-20.254
			l-3.646,19.182c-0.056,0.299-0.35,0.495-0.644,0.439c-0.3-0.057-0.496-0.345-0.438-0.645l5.572-29.327
			c0.055-0.289,0.326-0.483,0.615-0.443c0.29,0.04,0.499,0.299,0.476,0.591l-2.483,30.547
			C2179.912,782.665,2179.671,782.883,2179.387,782.883z"/>
		<path style="fill:#10325B;" d="M2173.12,779.99c-0.055,0-0.111-0.008-0.166-0.026c-0.29-0.092-0.451-0.401-0.359-0.692
			l8.749-27.653c0.072-0.232,0.267-0.396,0.534-0.385c0.244,0.004,0.456,0.168,0.521,0.402l7.735,27.516
			c0.083,0.293-0.088,0.597-0.381,0.68c-0.295,0.079-0.598-0.089-0.68-0.382l-7.236-25.739l-8.192,25.894
			C2173.571,779.84,2173.354,779.99,2173.12,779.99z"/>
		<path style="fill:#10325B;" d="M2177.757,782.817c-0.024,0-0.05-0.001-0.074-0.005c-0.302-0.041-0.514-0.318-0.473-0.62
			l2.894-21.444l-5.192,19.929c-0.076,0.294-0.382,0.472-0.672,0.394c-0.295-0.077-0.472-0.378-0.395-0.672l7.491-28.753
			c0.073-0.282,0.352-0.458,0.64-0.402c0.286,0.057,0.479,0.326,0.439,0.615l-4.113,30.481
			C2178.265,782.617,2178.028,782.817,2177.757,782.817z"/>
		<path style="fill:#10325B;" d="M2185.019,782.497c-0.278,0-0.518-0.211-0.547-0.494l-3.15-30.16
			c-0.03-0.29,0.171-0.555,0.46-0.601c0.282-0.045,0.563,0.14,0.626,0.426l6.3,28.683c0.065,0.297-0.122,0.591-0.42,0.657
			c-0.293,0.059-0.591-0.122-0.656-0.42l-4.193-19.09l2.13,20.393c0.032,0.303-0.188,0.574-0.49,0.606
			C2185.058,782.496,2185.038,782.497,2185.019,782.497z"/>
		<path style="fill:#10325B;" d="M2181.362,783.271c-0.003,0-0.006,0-0.009,0c-0.305-0.005-0.547-0.256-0.542-0.56l0.507-30.934
			c0.005-0.305,0.238-0.531,0.56-0.543c0.305,0.005,0.547,0.256,0.542,0.56l-0.507,30.934
			C2181.908,783.03,2181.663,783.271,2181.362,783.271z"/>
		<polygon style="fill:#1D3F70;" points="2210.483,729.448 2104.427,767.731 2020.659,669.303 2126.715,631.021 		"/>
		<path style="fill:#F99370;" d="M1994.431,891.106c-46.773-19.86-95.968-44.878-123.709-89.865
			c-37.325-70.105,14.454-146.575,66.946-192.212c7.777-7.607,18.446-15.914,27.778-5.289c9.885,12.58-6.175,23.182-12.038,33.321
			c-68.976,103.965-48.19,143.607,66.115,181.249C2067.062,834.939,2042.088,907.301,1994.431,891.106z"/>
		<path style="fill:#3A72AA;" d="M2058.809,819.169c0,0-0.176,0.121-0.474,0.353c0,0,0,0,0,0.011
			c-1.929,1.466-9.183,7.22-10.428,10.88c-3.682,10.858-4.586,23.303-17.957,33.522c-12.438,10.988-69.643,40.949-75.576,38.585
			c-118.667-47.283-152.065-195.073-19.963-290.613c3.957,14.904,22.939,19.644,22.939,19.644
			C1877.516,764.583,1931.995,781.971,2058.809,819.169z"/>
		<path style="fill:#23659B;" d="M1957.349,631.551c-1.487,3.082-3.504,6.694-5.617,9.554
			c-22.455-1.808-27.767-21.282-27.767-21.282c6.14-5.214,10.444-7.916,10.444-7.916
			C1938.367,626.81,1957.349,631.551,1957.349,631.551z"/>
		<path style="fill:#F99370;" d="M1937.668,609.029c0,0-3.765-28.696,28.255-37.68l-0.712,49.558L1937.668,609.029z"/>
		<path style="fill:#EABFAC;" d="M2062.713,611.288L2062.713,611.288L2062.713,611.288c-0.002-0.001-0.003-0.002-0.004-0.002
			c-0.001,0-0.002-0.001-0.003-0.001l-167.541-74.017c-0.001,0-0.002-0.001-0.003-0.002c-3.812-1.684-9.957,3.867-13.726,12.397
			c-3.768,8.53-3.734,16.809,0.077,18.495l-0.001,0.002l167.553,74.023l0.001-0.003c3.813,1.678,9.954-3.871,13.722-12.399
			S2066.521,612.976,2062.713,611.288z"/>
		
			<rect x="1955.219" y="580.132" transform="matrix(0.4041 -0.9147 0.9147 0.4041 635.7387 2155.3201)" style="fill:#EB5648;" width="33.776" height="19.181"/>
		<path style="fill:#F99370;" d="M1966.891,605.88c13.339-4.088,2.987-19.466,11.768-21.53c6.254,0.136,5.477,9.07,6.174,13.848
			c0.288,8.548-15.794,25.093-23.52,28.534C1952.226,630.779,1952.865,610.682,1966.891,605.88z"/>
		<path style="fill:#F99370;" d="M1983.116,576.348c1.383-3.971-3.394-13.287-8.513-7.824c-1.796,2.106-0.619,4.618,0.141,6.746
			l0.032-0.196C1973.805,581.418,1982.204,581.944,1983.116,576.348z"/>
		<path style="fill:#F99370;" d="M1975.736,572.616c-0.121-2.906-1.09-6.312-4.25-8.279c-5.116-2.808-8.985,5.627-4.461,8.103
			c-0.101-0.04-0.097-0.124,0,0.082c0.091,0.199,0.176,0.57,0.194,0.812c0.003,0.008,0.005,0.122,0.003-0.035
			C1967.71,579.977,1976.098,577.827,1975.736,572.616z"/>
		<path style="fill:#F99370;" d="M1968.123,568.48l-1.384-4.26c-2.653-6.246-9.947-0.865-8.058,3.513c0,0,1.383,4.26,1.383,4.26
			C1962.718,578.238,1970.012,572.858,1968.123,568.48z"/>
		<path style="fill:#F99370;" d="M1960.966,565.842l-1.384-4.26c-2.653-6.246-9.947-0.865-8.057,3.513c0,0,1.383,4.26,1.383,4.26
			C1955.561,575.601,1962.855,570.22,1960.966,565.842z"/>
		<path style="fill:#1D3F70;" d="M2006.808,803.299l-30.777,53.508l-25.475,44.292c-22.146-7.551-40.335-18.993-55.183-31.957
			c-27.801-24.296-43.884-53.938-52.207-73.35c-5.313-12.412-7.463-20.647-7.463-20.647c16.888-67.155,92.321-73.019,92.321-73.019
			c-1.102,7.738-1.631,14.782-1.565,21.198c0.232,26.247,10.241,41.988,30.05,51.821
			C1981.156,787.381,2006.808,803.299,2006.808,803.299z"/>
		<path style="fill:#10325B;" d="M1976.185,848.947c0,0-0.055,3.009-0.154,7.86l-25.475,44.292
			c-22.146-7.551-40.335-18.993-55.183-31.957c16.745,8.51,41.272,19.247,48.128,13.118
			C1954.193,872.68,1976.185,848.947,1976.185,848.947z"/>
		<path style="fill:#10325B;" d="M1928.024,702.127c-1.102,7.738-1.631,14.782-1.565,21.198c0,0-51.623,6.261-83.293,72.468
			c-5.313-12.412-7.463-20.647-7.463-20.647C1852.59,707.991,1928.024,702.127,1928.024,702.127z"/>
		<path style="fill:#F99370;" d="M2414.648,997.492c0.986,5.508-12.293,5.7-15.922,9.29c7.988,4.124,17.231,5.969,17.259,6.022
			c11.135,0.164,22.258-0.275,33.365-1.216c15.274,7.303-27.246,10.074-31.363,11.106c-0.004,0.056-0.012,0.111-0.017,0.166
			c11.369,2.601,22.901,4.583,34.524,5.581c14.016,10.965-32.917,3.662-37.327,3.424c-0.012,0.025-0.026,0.049-0.039,0.074
			c10.279,4.256,21.085,7.257,32.069,9.072c13.141,12.304-33.96,1.187-38.108-0.487c-0.029,0.033-0.058,0.066-0.088,0.099
			c7.586,4.518,15.748,8.067,24.023,11.172c10.596,13.217-28.781-2.193-32.416-4.137c-3.178-0.085-16.007-4.077-31.182-12.967
			c-5.625-3.296-11.789-28.358-5.952-30.993c5.473-2.471,23.993-6.02,26.903-6.554
			C2395.88,995.182,2410.67,992.058,2414.648,997.492z"/>
		<path style="fill:#F99370;" d="M2084.655,835.584c21.343-2.278,43.021,6.505,60.874,16.091
			c38.479,20.137,65.886,53.29,96.861,82.201c38.387,32.055,87.675,55.595,135.088,73.201c15.558,5.247,9.802,29.873-6.374,27.759
			c-57.737-6.123-112.665-21.167-163.824-50.832C2168.437,960.717,2034.786,842.409,2084.655,835.584z"/>
		<path style="fill:#F99370;" d="M2060.516,806.276l-1.711,12.893c-8.895,6.117-2.022,19.869,4.571,21.049
			c10.037,1.796,30.795-9.938,34.917-14.131c0,0,0.763-12.451,1.813-18.101L2060.516,806.276z"/>
		<path style="fill:#E57D61;" d="M2110.011,768.471c-0.199,0.662-0.423,1.329-0.682,1.967c-0.813-0.737-7.086,23.414-9.823,41.221
			c-17.9,5.058-36.053-1.134-39.363-2.356c3.072-22.616,8.276-42.852,13.558-55.253
			C2083.816,733.244,2116.912,746.43,2110.011,768.471z"/>
		<path style="fill:#8E4A35;" d="M2062.401,707.873c0,0-7.587-8.497,1.7-16.44l43.645-0.555L2062.401,707.873z"/>
		<path style="fill:#F99370;" d="M2137.893,761.364c-7.336,16.112-18.233,33.552-34.603,41.054l-0.022-0.006
			c-6.644,3.007-13.917,4.038-21.258,3.506c-42.348,0.221-75.946-58.145-36.081-83.026c14.364-7.569,20.718-24.235,33.095-32.721
			c18.096-15.241,46.243-6.481,57.386,13.047C2146.479,720.872,2145.987,741.265,2137.893,761.364z"/>
		<path style="fill:#C16256;" d="M2076.416,733.339c-0.74-3.352,4.542-4.437,5.183-1.064
			C2082.339,735.627,2077.057,736.712,2076.416,733.339z"/>
		<path style="fill:#C16256;" d="M2055.952,723.854c-0.74-3.352,4.542-4.437,5.183-1.064
			C2061.875,726.142,2056.593,727.227,2055.952,723.854z"/>
		<path style="fill:#E57D61;" d="M2137.893,761.364c-7.336,16.112-18.233,33.552-34.603,41.054l-0.022-0.006
			c-1.356,0.616-2.748,1.151-4.163,1.598c12.89-7.28,24.671-27.24,24.671-27.24l2.623-18.92
			c-11.813-21.054,0.335-37.764,0.335-37.764c-29.454,0.179-34.044-19.225-34.044-19.225c-8.952-1.255-16.852-8.109-16.852-8.109
			c17.878-18.056,48.613-10.699,60.573,10.466C2146.48,720.871,2145.986,741.266,2137.893,761.364z"/>
		<path style="fill:#8E4A35;" d="M2141.546,715.135c-12.886,1.411-24.368,27.296-1.953,53.286
			C2139.593,768.42,2165.094,727.58,2141.546,715.135z"/>
		<path style="fill:#C16256;" d="M2057.982,748.269c-4.655-1.336-11.057-6.476-4.012-9.008c7.032-1.613,11.097-11.653,13.273-10.658
			c1.848,1.202-6.526,10.776-12.817,12.609c-4.416,1.279,2.847,5.685,6.415,5.428c0.552-0.025,1.02,0.405,1.043,0.957
			C2061.685,749.406,2059.227,748.47,2057.982,748.269z"/>
		<path style="fill:#F99370;" d="M2146.269,772.815c-9.397,18.021-31.433,6.665-22.211-11.445
			C2133.455,743.349,2155.491,754.705,2146.269,772.815z"/>
		<path style="fill:#C16256;" d="M2139.104,775.107c-0.638-0.167-0.945-0.947-0.581-1.501c6.022-8.71,3.863-14.598-4.547-13.766
			c-1.286,0.163-1.508-1.877-0.211-1.991c8.946-1.081,14.153,5.82,6.449,16.827C2139.973,775.058,2139.517,775.221,2139.104,775.107
			z"/>
		<path style="fill:#C16256;" d="M2130.459,771.288c-2.935-1.061,5.318-8.748,12.778-7.237c0.541,0.117,0.892,0.64,0.781,1.181
			c-0.111,0.542-0.639,0.892-1.181,0.781C2135.133,764.735,2132.301,771.524,2130.459,771.288z"/>
		<path style="fill:#8E4A35;" d="M2095.5,698.131c8.167,13.628,24.529,23.28,44.503,17.472l10.636,25.804
			C2167.607,669.48,2085.074,672.576,2095.5,698.131z"/>
		<path style="fill:#F9F8F3;" d="M2050.89,757.638l27.724-3.009C2075.363,769.527,2057.244,772.913,2050.89,757.638z"/>
		<path style="fill:#C16256;" d="M2050.388,758.599c0.504,0.469,27.748-3.003,28.343-2.893c0.594-0.065,1.026-0.6,0.96-1.196
			c1.064-2.472-28.47,2.529-28.918,2.048C2049.73,756.635,2049.455,758.157,2050.388,758.599z"/>
		<path style="fill:#F99370;" d="M1887.008,1703.951h94.178c4.301,0,7.692-3.605,7.477-7.896c-0.104-2.074-0.349-4.523-0.834-7.303
			c-1.362-7.844-1.928-15.797-1.786-23.75c0.065-3.808,0.294-7.616,0.686-11.413l6.78-66.067c0.452-4.408-3.011-8.24-7.448-8.24
			h-41.564c-4.505,0-7.99,3.944-7.429,8.409l7.56,60.198c1.654,13.17-6.84,25.454-19.737,28.661
			c-9.19,2.285-18.522,3.654-25.196,5.371c-0.861,0.229-1.721,0.457-2.549,0.696h-0.011c-7.078,2.018-12.928,4.663-16.31,9.628
			C1877.435,1697.216,1880.986,1703.951,1887.008,1703.951z"/>
		<path style="fill:#1D3F70;" d="M1991.415,1694.193c-0.254,4.613-2.544,9.873-7.892,9.759c0,0-97.688,0-97.688,0
			c-5.048,0.007-8.629-5.047-6.836-9.759c3.792-10.651,15.683-26.589,61.844-29.192c6.628,0.644,23.32,2.969,45.201,0.001
			C1986.043,1665.002,1993.548,1676.792,1991.415,1694.193z"/>
		<path style="fill:#395B96;" d="M1878.998,1694.193h112.417c-0.414,3.427-1.362,6.756-3.083,9.759h-102.498
			c-4.979,0-8.546-4.9-6.895-9.591C1878.958,1694.305,1878.978,1694.25,1878.998,1694.193z"/>
		<path style="fill:#F99370;" d="M2098.335,1697.156l57.224,0.764c0-7.072-0.583-9.635-3.71-15.108
			c-11.496-15.261,2.228-83.5,1.831-101.33c2.664-4.877-49.692-1.046-50.524-2.202c-1.183,0.002-2.114,1.008-2.02,2.185
			l6.193,77.977C2110.106,1674.249,2098.731,1683.2,2098.335,1697.156z"/>
		<path style="fill:#1D3F70;" d="M2148.067,1703.953h-41.753c-5.251,0-9.493-4.351-9.267-9.591c0.002-0.056,0.005-0.111,0.008-0.168
			c0.523-11.467,5.381-28.961,30.13-29.19c24.836-0.218,29.64,17.581,30.141,29.19c0.003,0.067,0.006,0.134,0.008,0.201
			C2157.538,1699.623,2153.306,1703.953,2148.067,1703.953z"/>
		<path style="fill:#395B96;" d="M2148.067,1703.953h-41.753c-5.251,0-9.493-4.351-9.267-9.591l0.008-0.168h60.271
			c0.003,0.067,0.006,0.134,0.008,0.201C2157.538,1699.623,2153.306,1703.953,2148.067,1703.953z"/>
		<path style="fill:#3A72AA;" d="M2164.094,1650.159c0,0-47.073,10.803-71.323-0.805c0,0-1.002-5.788-2.752-16.145
			c-10.294-60.839-46.427-328.982-57.113-459.188c0,0-24.872,381.302-30.054,459.188c-0.633,9.607-0.979,15.351-0.932,16.145
			c0,0-5.815,1.948-14.394,3.688c-15.28,3.101-39.312,5.549-54.857-4.83c0,0-0.599-5.277-1.578-15.003
			c-7.024-69.781-45.607-336.031-5.466-553.873c0,0,142.288,13.064,229.892-11.948c0,0,23.886,216.178,8.069,565.821
			C2163.131,1643.297,2163.944,1649.322,2164.094,1650.159z"/>
		<path style="fill:#23659B;" d="M1988.501,1637.353c4.717-66.343,22.998-372.769,26.062-411.415
			c3.523-44.443,18.342-51.917,18.342-51.917s-30.992,475.221-30.985,475.333c0,0-5.816,1.948-14.394,3.689
			c-15.28,3.1-39.311,5.549-54.856-4.831c0,0-0.599-5.277-1.577-15.003C1931.092,1633.209,1956.286,1644.153,1988.501,1637.353z"/>
		<path style="fill:#23659B;" d="M1951.82,1641.864c-17.249-153.073-13.227-295.044-6.816-387.188
			c6.948-99.85,18.125-164.368,18.237-165.007l4.343,0.76c-0.112,0.638-11.256,64.982-18.185,164.623
			c-6.394,91.945-10.405,233.603,6.804,386.319L1951.82,1641.864z"/>
		<path style="fill:#23659B;" d="M2124.997,1644.184c-27.049-277.009-37.082-546.224-37.181-548.911l4.407-0.161
			c0.098,2.686,10.126,271.773,37.162,548.644L2124.997,1644.184z"/>
		<path style="fill:#23659B;" d="M2164.094,1650.159c0,0-47.073,10.803-71.323-0.805c0,0-1.002-5.788-2.752-16.145
			c0,0,32.08,8.78,73.568,0C2163.771,1643.305,2163.944,1649.322,2164.094,1650.159z"/>
		<path style="fill:#3A72AA;" d="M2164.545,1122.974c-78.556,11.963-161.695,32.935-248.822-11.961
			c0,0,16.208-135.923,38.65-208.493c16.438-10.187,71.393-78.704,104.182-83.615c-0.078,0.197-0.144,0.36-0.22,0.617
			c-4.686,19.07,6.672,22.41,39.96,6.559c65.285,15.224,68.69,84.425,63.604,146.082
			C2160.147,999.721,2164.545,1122.974,2164.545,1122.974z"/>
		<path style="fill:#3A72AA;" d="M2355.415,1032.934c-65.24-7.381-207.612-22.713-242.219-130.094
			c-6.645-21.301-7.957-46.104,6.494-69.165c32.498,13.871,65.076,32.994,106.476,76.105
			c46.542,48.285,99.494,74.753,136.072,91.451C2362.239,1001.231,2368.147,1017.634,2355.415,1032.934z"/>
		<path style="fill:#F4D4BE;" d="M2119.691,833.675c0,0-0.011,0.022-0.044,0.077c-0.309,0.628-2.48,4.939-6.008,11.839
			c-0.011,0.022-0.022,0.033-0.022,0.055c-9.624,18.784-29.3,56.616-49.054,91.307c-11.111,19.533-22.267,38.064-31.659,51.634
			c0,0-5.412-26.357-6.195-64.035c-0.364-18.144,0.342-38.913,3.241-60.618c1.62-12.17,3.935-24.626,7.143-37.083
			c1.135-4.42,2.381-8.83,3.748-13.239c8.918,2.789,17.494,5.291,17.714,5.291c-0.022,0.044-1.808,7.165,0.981,10.659
			c4.519,5.655,17.802,8.598,38.758-3.483C2105.471,828.715,2113.992,830.225,2119.691,833.675z"/>
		<path style="fill:#1D3F70;" d="M2068.388,850.674c-2.05,30.347-3.329,69.293-3.825,86.28
			c-8.584,18.23-19.339,39.991-31.476,54.443c0,0-8.631-31.147-6.378-66.844c13.129-46.397,29.3-78.244,29.3-78.244
			L2068.388,850.674z"/>
		<path style="fill:#1D3F70;" d="M2056.014,846.305c0,0,2.639,8.866,12.372,4.365l1.29-12.662l-5.623-2.788L2056.014,846.305z"/>
		<path style="fill:#EABFAC;" d="M2058.555,818.904c0,0-3.904-3.464-15.53-4.611c0,0-6.001,14.614,11.544,33.565
			c0,0,6.287-7.13,10.603-8.819l3.94,14.26c0,0,35.561-4.765,44.049-22.553c0,0-8.388-5.054-14.867-4.666
			c0,0-16.076,5.287-30.791,7.716C2067.504,833.797,2061.695,827.852,2058.555,818.904z"/>
		<path style="fill:#23659B;" d="M2355.415,1032.934c-1.681,1.793-16.138-1.859-16.138-1.859
			c13.206-11.575,8.451-36.622,8.451-36.622c9.198,3.622,14.51,6.777,14.51,6.777S2369.029,1018.411,2355.415,1032.934z"/>
		<path style="fill:#C16256;" d="M2071.581,714.188c-0.18,0.072-0.379,0.101-0.586,0.08l-8.146-0.863
			c-0.677-0.073-1.169-0.68-1.097-1.358c0.071-0.678,0.676-1.169,1.358-1.098l8.146,0.863c0.678,0.073,1.169,0.68,1.097,1.358
			C2072.304,713.642,2071.994,714.024,2071.581,714.188z"/>
		<path style="fill:#C16256;" d="M2087.14,730.106c-0.259-0.12-0.477-0.33-0.604-0.611l-4.228-9.354
			c-0.281-0.621-0.004-1.353,0.617-1.634c0.62-0.28,1.351-0.006,1.634,0.617l4.229,9.354c0.281,0.622,0.004,1.353-0.617,1.634
			C2087.829,730.266,2087.455,730.252,2087.14,730.106z"/>
		<path style="fill:#1D3F70;" d="M2306.291,1045.494c0,0-6.537-0.364-17.262-1.742c-11.597-1.477-28.099-4.134-46.486-8.786
			c-0.397-0.088-0.816-0.198-1.268-0.331c-35.738-9.171-78.332-25.861-106.111-55.966c0,0-2.965-14.76-2.921-36.046
			c0.066-25.552,4.476-60.53,23.601-90.679c0,0,41.977,19.611,80.162,62.392c25.663,28.749,54.919,46.309,71.354,54.731
			c8.025,4.123,12.997,6.063,12.997,6.063S2328.801,1017.352,2306.291,1045.494z"/>
		<path style="fill:#10325B;" d="M2241.275,1034.636c-35.738-9.171-78.332-25.861-106.111-55.966c0,0-2.965-14.76-2.921-36.046
			l30.094-30.579c0,0,15.334,71.255,20.956,85.608C2188.749,1011.553,2227.32,1030.745,2241.275,1034.636z"/>
		<path style="fill:#1D3F70;" d="M2203.84,1462.465c-170.554,30.259-306.219-8.874-306.219-8.874
			c-0.463-5.71-0.816-12.511-1.08-20.25c-3.164-95.154,8.687-330.856,19.181-398.375c11.343-73.008,34.834-133.868,34.834-133.868
			c13.724-41.437,56.252-97.8,56.252-97.8l27.603,181.963l121.434-133.317c0,0,24.913,227.325,33.357,327.516
			c6.614,78.542,11.85,207.824,13.813,260.053C2203.553,1453.922,2203.84,1462.465,2203.84,1462.465z"/>
		<path style="fill:#EB5648;" d="M2043.025,814.293c0,0-14.923,58.58-2.891,149.019c0,0,50.091-83.42,73.027-132.565
			c0,0,25.355,4.114,42.678,21.197c0,0-79.386,120.093-124.332,158.089c0,0-39.913-67.29-24.698-206.736
			C2006.81,803.297,2031.096,806.843,2043.025,814.293z"/>
		<path style="fill:#10325B;" d="M2079.007,705.787c0,0,49.508-5.156,68.74,45.652l15.705-37.164c0,0-10.506-49.975-74.556-45.921
			l-24.795,23.079C2064.102,691.433,2074.972,698.62,2079.007,705.787z"/>
		<path style="fill:#10325B;" d="M2203.84,1462.465c-170.554,30.259-306.219-8.874-306.219-8.874
			c-0.463-5.71-0.816-12.511-1.08-20.25c0,0,122.139,33.743,306.473,6.173C2203.553,1453.922,2203.84,1462.465,2203.84,1462.465z"/>
		<path style="fill:#10325B;" d="M2306.291,1045.494c0,0-6.537-0.364-17.262-1.742c23.248-26.225,18.332-74.683,18.332-74.683
			c8.025,4.123,12.997,6.063,12.997,6.063S2328.801,1017.352,2306.291,1045.494z"/>
	</g>
	<g id="_x33_">
		<path style="fill:#10325B;" d="M1534.587,792.669c-0.248,0-0.474-0.168-0.535-0.419l-10.59-42.942
			c-0.073-0.295,0.107-0.594,0.403-0.667c0.298-0.073,0.596,0.108,0.667,0.403l10.59,42.942c0.073,0.296-0.107,0.594-0.403,0.667
			C1534.675,792.664,1534.63,792.669,1534.587,792.669z"/>
		<path style="fill:#10325B;" d="M1542.517,820.191c-0.24,0-0.461-0.158-0.53-0.4l-8.344-29.347
			c-0.08-0.281,0.073-0.575,0.349-0.671c0.273-0.095,0.578,0.04,0.69,0.309l11.383,27.35c0.117,0.281-0.016,0.604-0.297,0.721
			c-0.282,0.117-0.604-0.016-0.721-0.297l-7.778-18.69l5.778,20.324c0.083,0.293-0.087,0.598-0.38,0.681
			C1542.617,820.185,1542.566,820.191,1542.517,820.191z"/>
		<path style="fill:#10325B;" d="M1538.821,821.138c-0.268,0-0.502-0.195-0.544-0.468l-3.082-20.082l0.892,19.5
			c0.014,0.304-0.222,0.562-0.525,0.576c-0.325,0.001-0.562-0.222-0.576-0.525l-1.363-29.82c-0.014-0.293,0.205-0.545,0.496-0.574
			c0.287-0.026,0.555,0.175,0.6,0.465l4.649,30.293c0.046,0.301-0.16,0.582-0.461,0.628
			C1538.878,821.136,1538.85,821.138,1538.821,821.138z"/>
		<path style="fill:#10325B;" d="M1532.059,819.772c-0.014,0-0.027,0-0.041-0.001c-0.304-0.023-0.532-0.287-0.51-0.59l2.115-28.927
			c0.018-0.243,0.193-0.446,0.431-0.498c0.245-0.052,0.483,0.058,0.601,0.27l13.891,24.98c0.148,0.266,0.053,0.602-0.214,0.75
			c-0.27,0.148-0.603,0.051-0.749-0.214l-12.994-23.367l-1.98,27.086C1532.586,819.551,1532.345,819.772,1532.059,819.772z"/>
		<path style="fill:#10325B;" d="M1537.221,821.45c-0.279,0-0.52-0.212-0.548-0.497l-2.145-21.53l-0.441,20.587
			c-0.006,0.304-0.289,0.516-0.563,0.54c-0.305-0.007-0.546-0.259-0.539-0.563l0.637-29.706c0.006-0.292,0.238-0.528,0.529-0.539
			c0.277-0.037,0.541,0.206,0.57,0.496l3.049,30.605c0.03,0.303-0.191,0.573-0.494,0.603
			C1537.258,821.449,1537.239,821.45,1537.221,821.45z"/>
		<path style="fill:#10325B;" d="M1544.214,819.458c-0.228,0-0.44-0.142-0.521-0.369l-10.041-28.613
			c-0.097-0.276,0.039-0.58,0.31-0.691c0.269-0.112,0.58,0.006,0.707,0.269l12.764,26.447c0.133,0.274,0.018,0.604-0.257,0.736
			c-0.271,0.131-0.604,0.018-0.735-0.257l-8.496-17.604l6.79,19.348c0.101,0.287-0.051,0.602-0.338,0.703
			C1544.336,819.448,1544.274,819.458,1544.214,819.458z"/>
		<path style="fill:#10325B;" d="M1540.834,821.057c-0.253,0-0.48-0.175-0.537-0.433l-6.662-30.212
			c-0.065-0.297,0.122-0.591,0.419-0.657c0.291-0.065,0.592,0.121,0.657,0.419l6.662,30.212c0.065,0.297-0.122,0.591-0.419,0.657
			C1540.914,821.053,1540.874,821.057,1540.834,821.057z"/>
		<polygon style="fill:#1D3F70;" points="1558.403,767.987 1473.846,816.59 1363.956,743.443 1447.846,693.552 		"/>
		<path style="fill:#C92828;" d="M1523.997,841.351c-4.663-23.611-16.22-34.284-18.449-43.561c0,0-13.382-45.68-50.584-54.433
			c-0.003,0.002-49.326,15.464-49.326,15.464c-45.093,68.987-111.344,61.924-123.704,124.081
			c-12.11,60.899,70.75,130.109,169.441,85.11C1451.375,968.013,1545.384,949.647,1523.997,841.351z"/>
		<path style="fill:#F99370;" d="M1435.377,891.625c-19.933,7.962-34.993,25.859-46.294,42.678
			c-24.605,35.788-33.338,77.906-47.208,117.943c-18.954,46.28-51.523,90.128-85.209,127.854
			c-11.302,11.91,5.297,30.991,18.61,21.561c48.18-32.4,89.707-71.373,121.068-121.51c23.453-38.743,34.943-87.287,69.577-118.02
			c-1.66,0.887-1.537,0.802-3.803,1.699C1509.268,946.124,1482.653,874.349,1435.377,891.625z"/>
		<path style="fill:#1D3F70;" d="M1425.888,1065.193c-3.825,8.367-10.285,18.63-17.825,29.311
			c-15.157,21.496-34.647,44.678-45.659,57.41c-0.628,0.728-1.224,1.422-1.797,2.072c-4.2,4.828-6.768,7.694-6.768,7.694
			c-50.09-1.455-62.481-34.426-62.481-34.426c2.547-3.472,5.038-7.143,7.496-10.968c25.266-39.331,45.934-95.738,62.866-143.965
			c18.574-52.912,46.067-67.518,46.067-67.518S1441.089,1031.99,1425.888,1065.193z"/>
		<path style="fill:#10325B;" d="M1408.063,1094.504c-15.157,21.496-34.647,44.678-45.659,57.41
			c2.624-47.974,1.543-100.787,3.505-136.756c2.315-42.341,16.172-63.175,16.172-63.175L1408.063,1094.504z"/>
		<path style="fill:#F99370;" d="M1221.343,1202.507c3.059,4.685,12.856-4.281,17.959-4.156c-2.986,8.479-8.449,16.16-8.433,16.218
			c-7.992,7.755-16.389,15.063-25.12,21.994c-6.109,15.789,26.74-11.351,30.444-13.423c0.041,0.037,0.085,0.072,0.127,0.109
			c-6.491,9.689-13.526,19.04-21.302,27.736c-2.683,17.593,26.47-19.906,29.517-23.104c0.026,0.009,0.052,0.018,0.079,0.027
			c-4.563,10.146-10.37,19.74-17.121,28.593c-1.128,17.967,25.532-22.423,27.404-26.485c0.044,0.004,0.088,0.008,0.132,0.011
			c-2.423,8.491-5.93,16.67-9.825,24.605c1.351,16.886,19.445-21.332,20.758-25.239c2.254-2.241,8.856-13.943,13.805-30.82
			c1.834-6.256-11.93-26.343-17.986-24.258c-5.678,1.955-20.526,9.689-23.011,11.296
			C1233.419,1187.956,1220.511,1195.824,1221.343,1202.507z"/>
		<path style="fill:#F99370;" d="M1515.879,964.612c47.553-17.913,97.739-40.878,127.313-84.682
			c40.187-68.505-8.392-147.046-58.955-194.812c-7.457-7.922-17.774-16.661-27.537-6.431c-10.396,12.162,5.213,23.417,10.653,33.79
			c64.625,106.723,42.222,145.473-73.54,178.365C1445.627,905.495,1467.594,978.826,1515.879,964.612z"/>
		<path style="fill:#10325B;" d="M1583.206,684.131c0,0-5.315,12.397-24.802,15.762c0,0,0.886,4.782,5.138,6.907
			c0,0,16.121-0.354,25.688-17.002C1589.229,689.799,1588.048,686.02,1583.206,684.131z"/>
		<path style="fill:#F99370;" d="M1431.599,879.624l1.789,12.882c6.605,21.484,35.173,4.655,39.902-3.862
			c0,0-2.585-12.204-3.079-17.929L1431.599,879.624z"/>
		<path style="fill:#F99370;" d="M1814.557,1544.95l15.184-93.507c-4.7-2.407-28.062-1.468-36.237-3.72
			c-5.228-0.501-70.917-18.789-77.758-20.468l-8.718,53.686l70.494,2.549c8.361,0.302,15.311,6.499,16.612,14.761
			c3.773,18.313-2.619,37.479,9.148,50.728C1807.316,1552.535,1813.695,1550.257,1814.557,1544.95z"/>
		<path style="fill:#1D3F70;" d="M1821.21,1447.146c3.096,0.893,6.023,2.263,8.533,4.296l-15.31,94.278
			c-0.745,4.584-5.796,7.17-9.876,4.948c-9.528-5.221-22.183-20.029-17.4-63.855c0,0,6.803-14.07,6.348-39.091
			C1793.506,1447.721,1808.66,1443.504,1821.21,1447.146z"/>
		<path style="fill:#395B96;" d="M1804.412,1550.588l16.798-103.442c3.096,0.893,6.023,2.263,8.533,4.296l-15.31,94.278
			C1813.685,1550.369,1808.49,1552.944,1804.412,1550.588z"/>
		<path style="fill:#F99370;" d="M1397.1,1703.943l94.616-1.038c1.562-5.059-3.349-27.879-2.532-36.328
			c0.022-3.555,0.933-23.017,1.26-26.564l-7.082-53.385l-41.709,0.458l9.547,69.869c1.133,8.287-3.786,16.192-11.707,18.887
			c-17.384,6.826-37.231,3.857-48.357,17.569C1388.245,1698.016,1391.662,1704.002,1397.1,1703.943z"/>
		<path style="fill:#1D3F70;" d="M1494.492,1693.766c-0.351,3.203-1.2,6.32-2.775,9.14l-95.537,1.048
			c-4.645,0.051-8.058-4.483-6.566-8.881c3.515-10.278,15.945-25.276,59.957-28.061c0,0,15.031,4.293,39.613-0.435
			C1489.186,1666.577,1495.934,1680.781,1494.492,1693.766z"/>
		<path style="fill:#395B96;" d="M1389.669,1694.916l104.823-1.15c-0.351,3.203-1.2,6.32-2.775,9.14l-95.537,1.048
			C1391.47,1704.012,1388.044,1699.335,1389.669,1694.916z"/>
		<path style="fill:#E57D61;" d="M1469.221,829.99c-0.015,0.691-0.053,1.394-0.133,2.078c-0.981-0.494-0.586,24.456,1.525,42.347
			c-15.903,9.648-35.051,8.521-38.566,8.226c-3.07-22.616-3.45-43.507-1.667-56.868
			C1434.58,803.024,1469.994,806.907,1469.221,829.99z"/>
		<path style="fill:#F99370;" d="M1494.953,816.32c-3.097,17.596-9.339,37.388-23.44,48.851l-0.023,0
			c-5.696,4.594-12.599,7.471-19.888,8.796c-40.936,11.195-89.089-38.034-56.248-72.002c11.845-10.629,14.599-29.724,24.072-40.329
			c13.835-19.464,43.554-18.013,59.38-1.75C1493.107,774.589,1497.782,794.639,1494.953,816.32z"/>
		<path style="fill:#F9F8F3;" d="M1414.266,833.15l15.249-3.986C1428.936,837.764,1419.088,841.162,1414.266,833.15z"/>
		<path style="fill:#C16256;" d="M1427.784,804.471c-1.57-3.089,3.318-5.482,4.796-2.349
			C1434.15,805.211,1429.262,807.604,1427.784,804.471z"/>
		<path style="fill:#C16256;" d="M1405.387,800.374c-1.57-3.089,3.318-5.482,4.797-2.349
			C1411.754,801.114,1406.866,803.507,1405.387,800.374z"/>
		<path style="fill:#C16256;" d="M1414.066,833.729c0.321,0.22,15.263-3.984,15.605-3.972c0.327-0.086,0.524-0.42,0.438-0.748
			c0.39-1.47-15.706,3.779-15.996,3.548C1413.535,832.686,1413.507,833.56,1414.066,833.729z"/>
		<path style="fill:#3A72AA;" d="M1778.019,1438.986c0,0,0,26.644-7.253,52.052c-6.184-0.518-12.258-1.025-18.2-1.554
			c-168.526-14.749-240.012-34.779-268.199-250.242c0,0-19.071,267.266,15.307,381.164c1.975,6.542,3.499,13.129,5.406,19.765
			c0,0-26.214,19.062-58.424,12.812c-40.169-76.337-126.725-281.438-50.201-521.814c45.615-52.769,154.923-80.868,187.64-25.828
			c54.599,91.88-43.906,263.878,175.118,328.552C1765.243,1435.679,1771.504,1437.376,1778.019,1438.986z"/>
		<path style="fill:#C16256;" d="M1411.997,823.599c1.644,0.036,5.253,0.708,5.19-1.526c-0.162-0.535-0.732-0.835-1.261-0.672
			c-3.405,1.035-8.178-0.733-8.81-2.274c-0.223-0.543,0.512-1.066,1.168-1.409c5.705-2.764,13.272-18.589,8.043-14.955
			c-0.039,0.105-3.9,10.508-8.979,13.165C1401.608,819.769,1407.488,822.888,1411.997,823.599z"/>
		<path style="fill:#E57D61;" d="M1494.953,816.32c-3.097,17.596-9.339,37.388-23.44,48.851l-0.023,0
			c7.86-9.473,12.985-30.848,12.985-30.848l-3.513-9.591c-60.969-20.648-55.011-69.752-55.011-69.752
			C1465.443,727.518,1503.585,776.046,1494.953,816.32z"/>
		<path style="fill:#C92828;" d="M1432.525,750.7c0,0-5.626,48.424,48.905,69.122l19.83-10.572
			C1520.991,771.88,1487.029,716.132,1432.525,750.7z"/>
		<path style="fill:#F99370;" d="M1506.029,825.393c-4.271,19.889-29.317,14.219-24.599-5.572
			C1485.7,799.933,1510.747,805.603,1506.029,825.393z"/>
		<path style="fill:#C16256;" d="M1499.488,829.435c4.212-4.296,2.701-13.077,0.549-14.614c-3.951-3.226-11.105-1.613-10.604,0.41
			c1.243,2.021,5.352-2.186,9.211,1.056C1502.603,819.294,1497.129,827.723,1499.488,829.435z"/>
		<path style="fill:#C16256;" d="M1490.074,827.886c2.068-0.082,2.933-7.582,10.882-8.27c0.557-0.029,0.986-0.504,0.957-1.062
			C1496.4,814.281,1486.294,828.252,1490.074,827.886z"/>
		<path style="fill:#F4D4BE;" d="M1494.85,834.479c0.001,2.943-4.623,2.876-4.537-0.066
			C1490.312,831.47,1494.936,831.537,1494.85,834.479z"/>
		<path style="fill:#23659B;" d="M1505.079,1640.171c0,0-26.206,19.058-58.424,12.812c0,0,0,0-8.55-16.875
			c0,0,40.852,3.643,61.55-15.702h0.017C1501.357,1626.904,1503.159,1633.487,1505.079,1640.171z"/>
		<path style="fill:#23659B;" d="M1458.959,1646.145c-28.917-68.207-48.462-137.567-58.09-206.154
			c-7.706-54.885-9.115-109.403-4.188-162.035c8.396-89.691,32.669-143.61,32.912-144.145l4.011,1.833
			c-0.242,0.529-24.252,53.924-32.553,142.941c-6.266,67.182,3.214,227.255,61.969,365.839L1458.959,1646.145z"/>
		<path style="fill:#23659B;" d="M1763.469,1482.124c-64.561-6.216-112.72-17.308-147.228-33.912
			c-34.475-16.589-56.87-38.782-70.479-69.846c-33.942-77.478-32.751-249.385-32.735-251.113l4.409,0.041
			c-0.016,1.718-1.199,172.688,32.365,249.302c25.821,58.939,96.267,89.796,214.09,101.137L1763.469,1482.124z"/>
		<path style="fill:#F4D4BE;" d="M1584.092,1105.345c-51.826,24.835-127.013,46.057-187.632,25.819c0,0.001-7.38-6.645-3.575-19.139
			c20.568-67.548-44.782-79.342,2.211-153.694c10.318-16.215,29.818-50.873,37.976-66.008c0,0-0.074,68.319,10.639,67.908
			c14.669-0.563,22.206-70.205,28.417-77.399c2.095,0.098,23.612-11.956,23.612-11.956c25.469,12.401,64.43,67.014,84.274,172.765
			C1582.934,1059.305,1600.604,1087.633,1584.092,1105.345z"/>
		<path style="fill:#F99370;" d="M1552.381,645.856c0,0,23.806-7.898,25.878,33.56l-24.467,9.522L1552.381,645.856z"/>
		<path style="fill:#C16256;" d="M1438.895,797.791c-0.433,0-0.851-0.228-1.079-0.632c-3.72-6.639-8.758-8.013-8.808-8.027
			c-0.658-0.171-1.057-0.841-0.89-1.5c0.167-0.659,0.829-1.063,1.492-0.895c0.246,0.061,6.088,1.588,10.361,9.215
			c0.333,0.595,0.121,1.347-0.474,1.68C1439.306,797.74,1439.1,797.791,1438.895,797.791z"/>
		<path style="fill:#C16256;" d="M1406.387,789.8c-0.509,0-0.987-0.317-1.166-0.824c-0.226-0.642,0.109-1.346,0.75-1.573
			c0.14-0.049,3.496-1.216,11.546-1.957c0.69-0.066,1.28,0.437,1.342,1.116c0.063,0.679-0.437,1.28-1.116,1.342
			c-7.679,0.708-10.917,1.816-10.948,1.827C1406.66,789.777,1406.522,789.8,1406.387,789.8z"/>
		<path style="fill:#23659B;" d="M1780.921,1438.986c0,0,0,26.644-7.253,52.052c-6.184-0.518-12.258-1.025-18.2-1.554
			c10.064-28.308,6.845-54.114,6.746-54.852C1768.244,1436.417,1774.406,1437.376,1780.921,1438.986z"/>
		<path style="fill:#EABFAC;" d="M1636.389,645.014L1636.389,645.014L1636.389,645.014c-0.002,0-0.003-0.001-0.005-0.001
			s-0.003,0-0.004,0l-182.913-9.536c-0.001,0-0.003-0.001-0.004-0.001c-4.162-0.217-7.929,7.157-8.415,16.471
			c-0.485,9.313,2.494,17.038,6.655,17.257l0,0.003l182.927,9.537l0-0.003c4.16,0.211,7.924-7.161,8.41-16.471
			C1643.526,652.96,1640.548,645.237,1636.389,645.014z"/>
		
			<rect x="1527.153" y="647.52" transform="matrix(0.0521 -0.9986 0.9986 0.0521 807.4324 2164.845)" style="fill:#EB5648;" width="33.776" height="19.181"/>
		<path style="fill:#F99370;" d="M1557.078,694.245c-12.579-2.294-24.198-12.694-24.56-26.032c0.297-4.839-0.9-14.822,5.96-14.112
			c7.483,2.942-6.588,18.512,17.656,20.551C1566.079,675.493,1566.989,695.377,1557.078,694.245z"/>
		<path style="fill:#F99370;" d="M1541.179,640.996c0.313-4.193,8.406-10.835,10.925-3.785c0.808,2.647-1.272,4.483-2.817,6.131
			l0.049-0.193C1547.7,649.356,1539.787,646.492,1541.179,640.996z"/>
		<path style="fill:#F99370;" d="M1549.435,640.514c1.269-2.618,3.514-5.355,7.196-5.901c5.811-0.537,6,8.74,0.864,9.21
			c0.108,0.003,0.138-0.075-0.033,0.075c-0.162,0.147-0.388,0.453-0.502,0.668c-0.006,0.006-0.054,0.11,0.012-0.034
			C1553.864,650.463,1547.027,645.149,1549.435,640.514z"/>
		<path style="fill:#F99370;" d="M1558.066,639.753l2.966-3.356c4.922-4.672,9.468,3.17,5.991,6.432c0,0-2.966,3.356-2.966,3.356
			C1559.136,650.857,1554.589,643.016,1558.066,639.753z"/>
		<path style="fill:#F99370;" d="M1565.681,640.184l2.966-3.356c4.922-4.672,9.468,3.169,5.991,6.432
			c0.001,0-2.966,3.356-2.966,3.356C1566.751,651.289,1562.204,643.448,1565.681,640.184z"/>
		<path style="fill:#1D3F70;" d="M1674.697,1369.648c0,0-66.427,130.914-324.231,129.657c0,0-0.077-8.323-0.044-22.631
			c0.143-54.092,1.885-193.637,15.488-291.58c17.208-123.837-24.637-184.576,41.878-280.292l38.372,68.643
			c0,0,36.51-83.557,49.583-102.573c0,0,37.105,28.143,66.218,82.687c8.135,15.245,15.642,32.541,21.54,51.865
			c0.838,2.756,1.664,5.49,2.48,8.19c25.232,84.164,35.98,144.462,41.426,214.262c4.167,53.32,16.348,94.845,31.075,120.618
			C1663.652,1357.545,1669.141,1364.655,1674.697,1369.648z"/>
		<path style="fill:#F4D4BE;" d="M1472.131,882.833c0,0-0.254,4.663-0.992,11.762c-2.238,21.341-8.929,64.774-26.666,69.844
			c0,0-16.822-32.607-13.239-62.734c0.375-3.164,0.97-6.305,1.841-9.381C1433.075,892.324,1448.001,906.489,1472.131,882.833z"/>
		<path style="fill:#EABFAC;" d="M1472.131,882.833c0,0-0.254,4.663-0.992,11.762c-6.052,5.479-14.22,9.701-23.292,11.112
			c-7.198,1.124-12.71-1.146-16.612-4.002c0.375-3.164,0.97-6.305,1.841-9.381C1433.075,892.324,1448.001,906.489,1472.131,882.833z
			"/>
		<path style="fill:#FBB03B;" d="M1433.071,892.323c0,0-18.838,0.392-25.285,12.478c0,0,11.319,77.152,36.12,90.033
			c0,0,24.662-26.248,33.774-56.29c9.106-30.021,9.755-56.24,18.06-67.669c0,0-15.971,1.356-23.612,11.956
			c0,0-7.556,15.668-14.123,39.497c-6.567,23.829-14.294,35.275-14.294,35.275S1434.595,922.547,1433.071,892.323z"/>
		<path style="fill:#10325B;" d="M1585.981,1013.615c-0.463-0.673-18.475-27.14-37.094-42.98
			c-18.861-16.05-31.483-40.996-31.483-40.996l44.557,23.921c8.135,15.245,15.642,32.541,21.54,51.865
			C1584.338,1008.18,1585.165,1010.914,1585.981,1013.615z"/>
		<path style="fill:#1D3F70;" d="M1687.076,858.615c0,0-2.778,7.661-9.37,19.137v0.011c-14.408,25.122-47.026,68.543-108.603,90.127
			c0,0-64.972-18.089-73.361-97.017c0,0,24.439-9.414,45.273-15.631c17.671-5.28,50.245-28.694,55.04-58.711
			c0.86-5.379,0.827-10.968-0.342-16.7C1595.714,779.831,1657.247,792.188,1687.076,858.615z"/>
		<path style="fill:#10325B;" d="M1674.697,1369.648c0,0-66.427,130.914-324.231,129.657c0,0-0.077-8.323-0.044-22.631
			c37.458-0.364,106.309-5.454,165.163-25.144c102.068-34.148,142.896-103.036,142.896-103.036
			C1663.652,1357.545,1669.141,1364.655,1674.697,1369.648z"/>
		<path style="fill:#10325B;" d="M1687.076,858.615c0,0-2.778,7.661-9.37,19.137c-6.934-42.771-81.65-81.22-81.65-81.22
			c0.86-5.379,0.827-10.968-0.342-16.7C1595.714,779.831,1657.247,792.188,1687.076,858.615z"/>
		<path style="fill:#10325B;" d="M1360.608,1153.986c-4.2,4.828-6.768,7.694-6.768,7.694c-50.09-1.455-62.481-34.426-62.481-34.426
			c2.547-3.472,5.038-7.143,7.496-10.968C1298.855,1116.286,1314.839,1147.648,1360.608,1153.986z"/>
		<path style="fill:#10325B;" d="M1423.46,769.338c0,0,51.624-16.529,82.088,28.453l7.008-38.088c0,0-28.185-50.849-88.134-29.07
			l-18.784,28.189C1405.638,758.822,1417.876,763.299,1423.46,769.338z"/>
	</g>
	<g id="_x32_">
		<path style="fill:#10325B;" d="M863.916,826.515c-0.022,0-0.043-0.001-0.065-0.004c-0.302-0.036-0.518-0.31-0.482-0.612
			l5.205-43.921c0.036-0.302,0.307-0.515,0.612-0.482c0.302,0.036,0.518,0.31,0.482,0.612l-5.205,43.921
			C864.43,826.309,864.191,826.515,863.916,826.515z"/>
		<path style="fill:#10325B;" d="M859.446,854.806c-0.028,0-0.056-0.002-0.085-0.006c-0.301-0.047-0.507-0.328-0.461-0.629
			l3.224-20.88l-5.41,19.505c-0.081,0.293-0.386,0.464-0.679,0.384c-0.293-0.081-0.465-0.385-0.384-0.679l7.917-28.546
			c0.079-0.281,0.366-0.45,0.647-0.392c0.286,0.062,0.474,0.335,0.429,0.623l-4.655,30.152
			C859.948,854.611,859.714,854.806,859.446,854.806z"/>
		<path style="fill:#10325B;" d="M863.229,855.289c-0.005,0-0.011,0-0.016,0c-0.304-0.008-0.544-0.262-0.535-0.566l0.872-30.635
			c0.008-0.293,0.244-0.528,0.537-0.535c0.309-0.04,0.54,0.216,0.563,0.508l2.331,29.76c0.024,0.303-0.203,0.569-0.506,0.592
			c-0.308,0.028-0.568-0.203-0.592-0.506l-1.525-19.463l-0.578,20.311C863.771,855.052,863.526,855.289,863.229,855.289z"/>
		<path style="fill:#10325B;" d="M869.773,853.098c-0.258,0-0.488-0.181-0.54-0.443l-5.311-26.635l-10.007,24.794
			c-0.114,0.282-0.435,0.418-0.718,0.305c-0.282-0.114-0.419-0.435-0.305-0.718l10.698-26.504c0.092-0.226,0.319-0.362,0.563-0.342
			c0.243,0.023,0.441,0.202,0.489,0.441l5.672,28.444c0.059,0.299-0.134,0.589-0.433,0.648
			C869.845,853.094,869.809,853.098,869.773,853.098z"/>
		<path style="fill:#10325B;" d="M864.855,855.401c-0.298,0-0.543-0.238-0.55-0.538l-0.755-30.748
			c-0.007-0.292,0.213-0.538,0.504-0.563c0.294-0.018,0.55,0.181,0.592,0.47l4.301,29.399c0.044,0.301-0.165,0.581-0.466,0.625
			c-0.301,0.043-0.581-0.165-0.625-0.466l-2.98-20.375l0.531,21.629c0.008,0.305-0.233,0.557-0.537,0.565
			C864.865,855.401,864.86,855.401,864.855,855.401z"/>
		<path style="fill:#10325B;" d="M857.671,854.288c-0.039,0-0.078-0.004-0.117-0.013c-0.298-0.065-0.486-0.358-0.422-0.655
			l4.348-20.038l-6.256,18.518c-0.098,0.288-0.413,0.443-0.698,0.346c-0.289-0.097-0.443-0.41-0.346-0.698l9.399-27.821
			c0.093-0.277,0.383-0.435,0.669-0.355c0.282,0.078,0.454,0.362,0.392,0.648l-6.43,29.634
			C858.153,854.111,857.925,854.288,857.671,854.288z"/>
		<path style="fill:#10325B;" d="M861.222,855.457c-0.017,0-0.034-0.001-0.052-0.002c-0.303-0.028-0.526-0.297-0.497-0.6
			l2.879-30.804c0.029-0.303,0.299-0.516,0.6-0.498c0.303,0.028,0.526,0.297,0.498,0.6l-2.879,30.804
			C861.744,855.243,861.503,855.457,861.222,855.457z"/>
		<polygon style="fill:#1D3F70;" points="838.103,798.769 934.214,852.001 1045.261,774.409 952.749,714.164 		"/>
		<path style="fill:#1D3F70;" d="M985.805,924.322c0,0,95.904,13.097,106.781,143.689l-69.731,18.513L985.805,924.322z"/>
		<path style="fill:#10325B;" d="M1039.195,986.144c0,0,14.931,14.309,18.309,39.457c3.377,25.148-24.768,13.515-24.768,13.515
			L1039.195,986.144z"/>
		<path style="fill:#F99370;" d="M1063.584,1336.891c-7.332,110.95-21.116,221.656-36.295,331.797
			c-3.534,26.087-34.641,31.066-37.524,2.598c-2.59-28.288-1.79-54.826-4.041-83.253c-5.184-82.903-12.549-165.94-21.733-248.507
			C957.68,1267.892,1066.09,1264.876,1063.584,1336.891z"/>
		<path style="fill:#F99370;" d="M983.576,1346.828l-90.809,329.001c-2.925,10.996-10.205,14.959-21.171,12.026
			c-9.788-2.618-16.106-3.272-15.255-13.055l29.102-345.213C893.642,1258.44,999.949,1277.026,983.576,1346.828z"/>
		<path style="fill:#F99370;" d="M1027.29,1668.687c0,0-9.9,15.985-38.172,0.124L1027.29,1668.687z"/>
		<path style="fill:#1D3F70;" d="M1027.29,1668.687c42.31,2.031,54.63,16.468,58.097,26.144c0.018,0.05,0.036,0.101,0.054,0.151
			c1.498,4.23-1.728,8.658-6.204,8.672l-92.062,0.3c-1.555-2.704-2.416-5.704-2.798-8.795c-1.567-12.528,4.74-26.348,4.74-26.348
			S1008.188,1677.171,1027.29,1668.687z"/>
		<path style="fill:#395B96;" d="M1085.387,1694.831l-101.01,0.329c0.382,3.09,1.243,6.091,2.798,8.795l92.062-0.3
			c4.476-0.014,7.702-4.443,6.204-8.672L1085.387,1694.831z"/>
		<path style="fill:#1D3F70;" d="M901.527,1694.181v8.266H848.07v-8.266c0-14.807,11.969-26.809,26.722-26.809
			C889.558,1667.372,901.527,1679.374,901.527,1694.181z"/>
		<rect x="848.07" y="1694.181" style="fill:#395B96;" width="53.458" height="8.266"/>
		<path style="fill:#662948;" d="M879.029,865.631c-10.193,17.654-6.06,39.123,9.232,47.952c15.291,8.828,35.95,1.673,46.143-15.981
			c10.193-17.654,6.06-39.123-9.231-47.952C909.88,840.822,889.222,847.977,879.029,865.631z"/>
		<path style="fill:#662948;" d="M921.551,884.101c0,0-35.807-11.454-39.233-62.984c0,0,49.112-67.679,70.432-52.307
			L921.551,884.101z"/>
		<path style="fill:#662948;" d="M942.659,764.203c52.143-14.682,86.823,61.088,61.806,100.567L942.659,764.203z"/>
		<path style="fill:#F99370;" d="M885.526,1196.241h162.767c0.84-64.362-6.588-129.427-21.706-191.93
			c-9.022-36.477-14.21-65.644-48.97-85.135c2.477-21.601-0.902-52.752-3.915-65.584c-1.584-6.93-6.543-12.172-12.117-13.911
			c-14.258-4.952-31.139,7.196-26.751,23.267c1.293-0.813,5.432,45.01,2.575,57.732c-70.647,22.546-34.635,102.811-39.463,156.661
			C897.573,1116.908,893.757,1157.56,885.526,1196.241z"/>
		<path style="fill:#E57D61;" d="M934.449,860.863c0.099,0.697,0.222,1.404,0.384,2.085c0.932-0.617,3.542,24.666,3.566,43.016
			c17.244,7.841,36.401,4.643,39.919,3.921c0.872-26.256,2.011-63.365-16.734-70.204
			C948.125,833.924,932.08,846.192,934.449,860.863z"/>
		<path style="fill:#F99370;" d="M907.353,843.964c2.896,17.966,8.961,38.216,23.151,50.1h0.023
			c5.732,4.762,12.719,7.794,20.122,9.251c41.922,11.724,91.086-37.01,58.325-72.507c-11.905-11.001-14.431-30.489-23.92-41.43
			c-13.799-20.025-44.082-18.988-60.434-2.656C909.842,801.489,904.79,821.84,907.353,843.964z"/>
		<path style="fill:#C16256;" d="M975.918,832.884c1.644-3.122-3.298-5.633-4.849-2.463
			C969.424,833.543,974.366,836.053,975.918,832.884z"/>
		<path style="fill:#C16256;" d="M998.781,829.04c1.644-3.122-3.298-5.633-4.849-2.463
			C992.288,829.699,997.229,832.21,998.781,829.04z"/>
		<path style="fill:#C16256;" d="M990.135,852.692c4.978-0.059,12.72-3.416,6.425-7.84c-5.135-2.781-8.914-13.433-8.952-13.54
			c-5.313-4.01,2.249,12.576,7.97,15.349c4.029,2.469-4.363,4.86-7.834,3.639c-0.544-0.174-1.122,0.124-1.294,0.666
			C986.156,852.815,988.847,852.554,990.135,852.692z"/>
		<path style="fill:#1D3F70;" d="M1102.976,1543.663c0,0-145.597,61.301-283.455-5.071c0.386-5.214,0.86-10.99,1.4-17.263
			c0.011-0.033,0.011-0.044,0.011-0.044c9.524-109.87,41.812-371.477,54.886-401.99c59.581,15.345,129.359,16.712,188.72,10.494
			c5.302,29.851,33.666,271.804,37.909,390.812C1102.755,1528.925,1102.932,1536.653,1102.976,1543.663z"/>
		<path style="fill:#1D3F70;" d="M877.558,1113.231c0,0,79.852,70.772,186.993,16.559c-0.084-0.11-33.307-38.75-17.109-92.513
			c11.238-37.302-31.147-95.178-61.637-112.955c0,0,23.315,92.836,6.558,93.08c-8.605,0.125-64.414-93.08-64.414-93.08
			C867.664,944.113,899.843,1037.597,877.558,1113.231z"/>
		<path style="fill:#E57D61;" d="M907.353,843.964c2.896,17.966,8.961,38.216,23.151,50.1h0.023
			c-7.865-9.764-12.77-31.61-12.77-31.61l3.717-9.717c62.38-20.133,56.959-70.498,56.959-70.498
			c-9.307-8.131-21.797-9.511-33.75-6.539C915.398,783.272,903.669,814.901,907.353,843.964z"/>
		<path style="fill:#662948;" d="M971.994,777.51c0,0,4.903,49.94-50.923,70.219l-20.036-11.06
			C881.495,798.335,916.988,741.495,971.994,777.51z"/>
		<path style="fill:#F99370;" d="M908.255,935.864c-44.303,32.767-86.48,93.766-90.845,147.901
			c-4.582,102.702,91.018,110.894,163.862,71.316c15.356-7.804,2.59-31.403-13.887-27.034c-12.004,3.084-20.488,5.781-32.321,6.112
			c-105.03,2.937-52.058-81.514-11.332-119.578C923.732,1014.581,937.879,915.085,908.255,935.864z"/>
		<path style="fill:#1D3F70;" d="M827.279,1177.08c20.16,16.214,68.184,31.655,90.254,27.113c0,0-6.798-52.654,5.25-75.333
			c0,0-52.162-28.27-19.348-69.575c16.713-21.038,26.941-34.447,30.362-63.055c2.066-17.264-8.107-70.825-8.107-70.825
			c-17.871,4.681-63.484,20.938-95.205,70.383C793.79,1052.996,777.708,1137.212,827.279,1177.08z"/>
		<polygon style="fill:#F4D4BE;" points="990.624,1194.096 1090.664,1186.409 1121.415,1015.16 1021.375,1022.848 		"/>
		<path style="fill:#F99370;" d="M1100.672,1123.447c5.163,1.007,15.427-4.71,7.582-9.335c-2.984-1.604-5.777-0.175-8.198,0.798
			l0.247,0.013C1092.338,1114.561,1093.634,1123.072,1100.672,1123.447z"/>
		<path style="fill:#F99370;" d="M1103.522,1115.65c3.518-0.404,7.449-1.711,9.12-5.085c2.245-5.426-8.938-8.503-10.916-3.706
			c0.026-0.105,0.129-0.109-0.1,0.008c-0.223,0.111-0.655,0.232-0.946,0.274c-0.009,0.004-0.148,0.017,0.044-0.001
			C1092.69,1108.283,1097.248,1116.522,1103.522,1115.65z"/>
		<path style="fill:#F99370;" d="M1106.812,1107.581l4.878-1.808c7.008-3.279-1.24-10.103-6.145-7.774c0,0-4.878,1.807-4.878,1.807
			C1093.66,1103.085,1101.906,1109.908,1106.812,1107.581z"/>
		<path style="fill:#F99370;" d="M1108.379,1100.116l4.878-1.808c7.008-3.279-1.239-10.102-6.144-7.774c0,0-4.878,1.807-4.878,1.807
			C1095.226,1095.621,1103.474,1102.444,1108.379,1100.116z"/>
		<path style="fill:#F99370;" d="M895.943,853.041c4.42,20.418,29.351,15.147,25.128-5.312
			C916.651,827.311,891.721,832.582,895.943,853.041z"/>
		<path style="fill:#C16256;" d="M902.424,857.26c0.678,0.008,1.193-0.682,0.984-1.33c-3.891-10.862,0.923-15.426,8.249-12.411
			c1.229,0.506,2.002-1.451,0.749-1.917c-8.574-3.504-15.612,1.925-10.965,14.929C901.575,856.975,901.983,857.26,902.424,857.26z"
			/>
		<path style="fill:#C16256;" d="M912.031,855.822c3.197-0.255-2.896-10.117-10.701-10.645c-0.552-0.035-1.058,0.392-1.095,0.959
			c-0.037,0.567,0.391,1.058,0.958,1.095C909.178,848.057,910.141,855.556,912.031,855.822z"/>
		<path style="fill:#F4D4BE;" d="M907.192,862.459c-0.044,2.997,4.664,2.997,4.62,0
			C911.857,859.462,907.148,859.462,907.192,862.459z"/>
		<path style="fill:#C16256;" d="M962.64,828.844c0.304,0.03,0.616-0.096,0.813-0.359c6.811-9.103,15.186-8.993,15.27-8.991
			c0.498,0.013,0.915-0.38,0.929-0.879c0.015-0.498-0.375-0.91-0.875-0.93c-0.379-0.012-9.371-0.178-16.774,9.716
			c-0.299,0.4-0.217,0.967,0.183,1.267C962.324,828.771,962.48,828.829,962.64,828.844z"/>
		<path style="fill:#C16256;" d="M1000.136,819.615c0.301-0.02,0.586-0.191,0.739-0.477c0.236-0.441,0.069-0.989-0.372-1.225
			c-0.273-0.146-6.769-3.547-13.633-1.52c-0.48,0.142-0.753,0.645-0.612,1.124c0.142,0.479,0.645,0.755,1.125,0.612
			c6.16-1.82,12.207,1.349,12.268,1.381C999.805,819.593,999.973,819.626,1000.136,819.615z"/>
		<path style="fill:#C16256;" d="M978.575,857.512c-0.29-0.084-0.616-0.022-0.858,0.195c-0.373,0.333-0.404,0.906-0.071,1.278
			c0.207,0.231,5.14,5.655,12.282,6.108c0.499,0.032,0.929-0.347,0.961-0.846c0.032-0.499-0.346-0.93-0.846-0.961
			c-6.41-0.406-11.002-5.458-11.048-5.509C978.878,857.647,978.732,857.558,978.575,857.512z"/>
		<path style="fill:#EB5648;" d="M962.911,1129.281c0,0-2.917,16.793,9.587,30.404c0,0-1.065,3.298-6.974,3.165
			c0,0-10.477-14.174-9.321-31.834C956.203,1131.016,958.874,1127.718,962.911,1129.281z"/>
		<path style="fill:#D61F1F;" d="M1083.493,1151.308c-0.66,4.537-4.507,7.733-8.592,7.139c-4.085-0.594-6.862-4.754-6.202-9.291
			c0.66-4.537,4.507-7.733,8.592-7.139C1081.377,1142.611,1084.153,1146.771,1083.493,1151.308z"/>
		<polygon style="fill:#D61F1F;" points="1075.095,1155.401 1081.849,1177.08 1083.96,1170.599 1089.589,1173.303 
			1080.583,1150.231 		"/>
		<polygon style="fill:#D61F1F;" points="1072.359,1150.231 1061.806,1170.338 1067.882,1167.247 1069.95,1173.14 
			1079.896,1150.457 		"/>
		<polygon style="fill:#EABFAC;" points="1109.215,1042.338 1029.18,1048.952 1032.487,1032.215 1112.522,1025.601 		"/>
		<path style="fill:#10325B;" d="M981.701,795.569c0,0-51.287-12.323-99.383,25.548l3.208-37.932c0,0,31.812-39.028,94.127-25.518
			l16.704,27.002C996.357,784.669,987.697,789.94,981.701,795.569z"/>
		<path style="fill:#F4D4BE;" d="M937.408,920.68c0,0,23.365,12.527,40.208-1.503c0,0,6.007,2.18,8.189,5.145
			c2.181,2.965,12.623,62.184,6.558,85.899c0,0-53.997-49.086-64.414-85.899C927.948,924.322,932.776,921.179,937.408,920.68z"/>
		<path style="fill:#EB5648;" d="M927.948,924.322l62.676,81.101l-4.819-81.101c0,0,30.229,0.766,53.391,26.17l-38.214,96.086
			L882.318,944.412C882.318,944.412,904.217,924.734,927.948,924.322z"/>
		<path style="fill:#10325B;" d="M920.552,1135.616c-0.221,0-0.446-0.045-0.662-0.14c-0.836-0.365-1.218-1.341-0.852-2.177
			l1.649-3.771c-17.759-10.82-27.753-23.306-29.713-37.129c-2.549-17.977,9.37-32.904,14.613-38.487
			c12.183-12.973,20.751-33.283,20.836-33.487c0.352-0.842,1.321-1.238,2.163-0.888c0.843,0.352,1.24,1.32,0.888,2.163
			c-0.357,0.855-8.887,21.071-21.476,34.476c-4.917,5.235-16.098,19.2-13.75,35.76c1.858,13.102,11.743,25.046,29.379,35.501
			c0.718,0.426,1.006,1.32,0.672,2.085l-2.231,5.102C921.796,1135.245,921.189,1135.616,920.552,1135.616z"/>
		<path style="fill:#10325B;" d="M906.646,1206.512c-25.074,0-45.735-9.896-46.723-10.377c-0.821-0.399-1.163-1.389-0.763-2.209
			c0.399-0.822,1.389-1.165,2.21-0.765c0.263,0.128,26.175,12.526,54.348,9.576c-0.473-4.628-1.747-17.907-1.708-26.481
			c0.004-0.91,0.744-1.646,1.653-1.646c0.002,0,0.005,0,0.007,0c0.913,0.004,1.65,0.747,1.646,1.661
			c-0.045,10.112,1.842,27.567,1.861,27.743c0.098,0.897-0.542,1.707-1.438,1.819
			C913.981,1206.305,910.266,1206.512,906.646,1206.512z"/>
		<path style="fill:#10325B;" d="M1102.976,1543.663c0,0-145.597,61.301-283.455-5.071c0.386-5.214,0.86-10.99,1.4-17.263
			c0.011-0.033,0.011-0.044,0.011-0.044s139.6,58.248,281.515-0.684C1102.755,1528.925,1102.932,1536.653,1102.976,1543.663z"/>
		<polygon style="fill:#EABFAC;" points="1026.924,1069.986 1017.085,1121.851 1072.915,1115.715 1079.896,1065.202 		"/>
		<path style="fill:#F99370;" d="M966.202,1141.079c0.025-1.154,0.379-2.222,0.962-3.126c-5.44-6.796,1.111-11.45,6.607-14.873
			c10.387-6.75,22.142-11.449,34.412-13.195c4.878-0.696,9.819-0.87,14.697-0.577c4.749,0.176,4.833,7.636,0.012,7.84
			c-5.219,0.324-10.343,1.237-15.3,2.8c6.254-0.67,12.714-0.954,19.006-0.759c4.64-0.043,5.204,7.187,0.543,7.808
			c-8.837,1.259-17.595,3.534-26.019,6.468c8.308-0.988,16.553-2.447,24.718-4.284c4.74-1.129,6.688,6.266,1.961,7.592
			c-8.921,2.738-17.986,5.005-27.159,6.752c4.646-0.276,9.427-0.785,14.042-1.368c4.661-0.668,6.114,6.573,1.47,7.698
			c-1.698,0.451-3.395,0.921-5.102,1.358c-12.073,2.987-24.421,5.271-36.906,5.445c-5.956,0.663-10.124-6.578-6.225-11.239
			C966.829,1144.302,966.166,1142.766,966.202,1141.079z"/>
	</g>
	<g id="_x31_">
		<polygon style="fill:#1D3F70;" points="372.361,709.54 478.416,747.822 562.185,649.395 456.129,611.112 		"/>
		<path style="fill:#F99370;" d="M640.871,1703.951h-94.177c-8.219-0.329-8.159-8.703-6.643-15.199
			c5.185-23.407-3.981-77.158-5.68-101.23c-0.452-4.408,3.011-8.24,7.448-8.24h41.564c4.505,0,7.99,3.944,7.429,8.409l-7.56,60.198
			c-2.9,27.87,25.971,30.192,44.934,34.03c7.45,1.873,15.24,4.767,18.869,10.325
			C650.443,1697.216,646.892,1703.951,640.871,1703.951z"/>
		<path style="fill:#1D3F70;" d="M536.464,1694.193c0.254,4.613,2.544,9.873,7.892,9.759c0,0,97.688,0,97.688,0
			c5.048,0.007,8.629-5.047,6.836-9.759c-3.792-10.651-17.262-26.525-63.423-29.129c-6.628,0.643-21.741,2.906-43.622-0.062
			C541.836,1665.002,534.33,1676.792,536.464,1694.193z"/>
		<path style="fill:#395B96;" d="M648.881,1694.193H536.464c0.414,3.427,1.362,6.756,3.083,9.759h102.498
			c4.979,0,8.546-4.9,6.896-9.591C648.921,1694.305,648.901,1694.25,648.881,1694.193z"/>
		<path style="fill:#F99370;" d="M429.543,1697.156l-57.223,0.764c0-7.072,0.583-9.635,3.71-15.108
			c11.496-15.261-2.228-83.5-1.831-101.33c-2.664-4.877,49.692-1.046,50.524-2.202c1.183,0.002,2.114,1.008,2.02,2.185
			l-6.193,77.977C417.772,1674.249,429.148,1683.2,429.543,1697.156z"/>
		<path style="fill:#1D3F70;" d="M379.811,1703.953h41.753c5.251,0,9.493-4.351,9.267-9.591c-0.002-0.056-0.005-0.111-0.008-0.168
			c-0.523-11.467-5.381-28.961-30.13-29.19c-24.836-0.218-29.64,17.581-30.141,29.19c-0.003,0.067-0.006,0.134-0.008,0.201
			C370.341,1699.623,374.573,1703.953,379.811,1703.953z"/>
		<path style="fill:#395B96;" d="M379.811,1703.953h41.753c5.251,0,9.493-4.351,9.267-9.591l-0.008-0.168h-60.271
			c-0.003,0.067-0.006,0.134-0.008,0.201C370.341,1699.623,374.573,1703.953,379.811,1703.953z"/>
		<path style="fill:#3A72AA;" d="M363.785,1650.159c0,0,47.072,10.803,71.323-0.805c0,0,1.002-5.788,2.752-16.145
			c10.294-60.839,46.427-328.982,57.113-459.188c0,0,24.872,381.302,30.054,459.188c0.633,9.607,0.979,15.351,0.932,16.145
			c0,0,5.815,1.948,14.394,3.688c15.28,3.101,39.312,5.549,54.857-4.83c0,0,0.599-5.277,1.578-15.003
			c7.024-69.781,45.607-336.031,5.466-553.873c0,0-142.288,13.064-229.892-11.948c0,0-23.886,216.178-8.069,565.821
			C364.748,1643.297,363.934,1649.322,363.785,1650.159z"/>
		<path style="fill:#23659B;" d="M539.378,1637.353c-4.717-66.343-22.998-372.769-26.062-411.415
			c-3.523-44.443-18.342-51.917-18.342-51.917s30.992,475.221,30.985,475.333c0,0,5.816,1.948,14.394,3.689
			c15.28,3.1,39.312,5.549,54.856-4.831c0,0,0.599-5.277,1.577-15.003C596.786,1633.209,571.592,1644.153,539.378,1637.353z"/>
		<path style="fill:#23659B;" d="M576.059,1641.864c17.249-153.073,13.227-295.044,6.816-387.188
			c-6.948-99.85-18.125-164.368-18.237-165.007l-4.344,0.76c0.112,0.638,11.256,64.982,18.186,164.623
			c6.395,91.945,10.405,233.603-6.803,386.319L576.059,1641.864z"/>
		<path style="fill:#23659B;" d="M402.881,1644.184c27.049-277.009,37.082-546.224,37.181-548.911l-4.407-0.161
			c-0.098,2.686-10.127,271.773-37.162,548.644L402.881,1644.184z"/>
		<path style="fill:#F99370;" d="M405.143,888.883c-114.78-81.358-139.178-193-103.758-324.499
			c5.215-18.407,32.893-18.852,30.145,0.016c-0.197,2.338-0.226,13.439-0.358,15.779c-4.243,103.279,38.845,181.971,138.116,226.748
			C469.258,806.904,458.663,918.31,405.143,888.883z"/>
		<path style="fill:#3A72AA;" d="M329.502,837.145c0.32,0.441,0.639,0.882,0.981,1.323c0.033,0.055,0.077,0.11,0.11,0.165
			c0.97,1.312,1.962,2.602,2.965,3.891c19.302,24.792,44.05,45.835,74.772,57.862c0,0,1.036-0.298,2.833-1.003
			c11.872-4.619,57.178-26.985,61.213-100.192c0,0-29.444-12.909-56.164-29.895c-25.817-16.414-77.825-65.6-84.682-171.667
			c-0.242-3.726-0.43-7.529-0.551-11.398c0,0-20.614,5.897-34.955,0c0,0-1.345,4.134-3.285,11.398
			c-4.641,17.362-12.677,52.615-13.879,91.913C277.769,725.511,293.345,787.76,329.502,837.145z"/>
		<path style="fill:#23659B;" d="M292.739,597.629c16.436,7.044,38.119,0.22,38.791,0c-0.242-3.726-0.43-7.529-0.551-11.398
			c0,0-20.614,5.897-34.955,0C296.024,586.231,294.679,590.365,292.739,597.629z"/>
		<path style="fill:#23659B;" d="M333.558,842.525c19.302,24.792,44.05,45.835,74.772,57.862c0,0,1.036-0.298,2.833-1.003v-57.597
			c0,0-18.034,29.002-28.165,28.44C373.628,869.708,347.337,858.872,333.558,842.525z"/>
		<path style="fill:#F99370;" d="M525.192,895.372c139.157-20.714,211.368-109.284,239.189-242.599
			c3.665-18.777-24.033-26.043-30.107-7.969c-0.881,2.175-2.663,6.453-3.603,8.6C687.789,747.456,630.24,806.95,521.448,802.038
			c0.036-0.007,0.137-0.024,0.174-0.03C460.565,804.62,464.15,897.44,525.192,895.372z"/>
		<path style="fill:#F99370;" d="M756.629,598.355c5.171,2.138-1.825,13.427-0.757,18.418c7.779-4.506,14.315-11.297,14.375-11.292
			c6.14-9.291,11.765-18.896,16.959-28.76c14.384-8.929-6.2,28.38-7.55,32.404c0.044,0.034,0.087,0.07,0.131,0.105
			c8.319-8.174,16.204-16.82,23.309-26.072c16.791-5.896-14.657,29.7-17.235,33.286c0.014,0.024,0.028,0.048,0.041,0.072
			c9.125-6.364,17.477-13.848,24.926-22.122c17.447-4.437-17.304,29.245-20.949,31.836c0.012,0.042,0.024,0.085,0.036,0.127
			c7.895-3.955,15.283-8.916,22.359-14.214c16.844-1.801-17.36,23.061-20.956,25.075c-1.785,2.63-12.061,11.286-27.729,19.276
			c-5.808,2.962-30.24-5.354-29.313-11.692c0.869-5.942,7.861-23.454,8.98-26.193C744.568,612.919,749.908,598.777,756.629,598.355z
			"/>
		<path style="fill:#3A72AA;" d="M509.833,799.214l59.846,101.173c21.838-3.207,48.293-9.244,85.85-36.388
			c0.011,0,4.759-3.668,7.121-5.622c59.94-46.588,92.365-149.354,98.185-189.889c-21.253,0.342-31.593-11.993-31.593-11.993
			c-1.687,3.109-3.495,6.261-5.391,9.458v0.011C673.527,754.576,590.927,808.103,509.833,799.214z"/>
		<path style="fill:#23659B;" d="M723.852,665.952v0.011c11.365,12.82,34.735,14.176,34.735,14.176
			c1.587-7.375,2.249-11.652,2.249-11.652c-21.253,0.342-31.593-11.993-31.593-11.993
			C727.556,659.602,725.749,662.755,723.852,665.952z"/>
		<path style="fill:#23659B;" d="M573.868,851.674l3.957,47.533c14.275-2.634,45.405-10.836,77.704-35.209
			c-18.574,12.589-46.684,18.42-58.06,12.986C584.517,870.789,573.868,851.674,573.868,851.674z"/>
		<path style="fill:#F99370;" d="M509.807,799.19c2.319-20.164-0.853-49.328-3.66-61.241c-5.077-23.613-42.57-14.475-36.339,8.736
			c1.209-0.759,5.078,42.031,2.407,53.908C437.03,811.136,542.85,845.802,509.807,799.19z"/>
		<path style="fill:#E57D61;" d="M469.448,744.738c0.044,0.272,0.076,0.555,0.131,0.827c0.066,0.381,0.141,0.751,0.229,1.12
			c0.872-0.576,3.312,23.032,3.333,40.167c16.122,7.322,34.048,3.972,37.338,3.297c0.719-18.114-2.055-40.44-3.525-48.839
			c-0.436-1.969-0.752-3.122-0.806-3.362c-0.131-0.533-0.283-1.055-0.458-1.567c-1.797-5.374-5.871-9.454-10.86-11.424
			c-0.011,0-0.011,0-0.011,0c-3.464-1.36-7.353-1.697-11.241-0.762c-3.845,0.936-7.124,2.992-9.564,5.745
			c-0.109,0.109-0.207,0.228-0.305,0.337C470.417,734.185,468.74,739.396,469.448,744.738z"/>
		<path style="fill:#23659B;" d="M363.785,1650.159c0,0,47.072,10.803,71.323-0.805c0,0,1.002-5.788,2.752-16.145
			c0,0-32.08,8.78-73.568,0C364.107,1643.305,363.934,1649.322,363.785,1650.159z"/>
		<path style="fill:#C92828;" d="M532.984,701.071c0,0-0.029-13.599-8.479-26.321l-14.033,1.171L532.984,701.071z"/>
		<path style="fill:#F99370;" d="M542.78,759.297c-11.302,15.952-31.568,23.254-48.859,22.369
			c-5.384-0.195-10.641-1.214-15.506-3.247l-0.007,0.002c-1.645-0.686-3.224-1.471-4.756-2.37l-0.02,0.006
			c-73.978-53.672-4.647-172.469,49.609-87.443C540.743,712.194,566.171,722.226,542.78,759.297z"/>
		<path style="fill:#C16256;" d="M506.962,711.856c0.435-1.358-0.313-2.81-1.672-3.244c-1.359-0.434-2.813,0.315-3.249,1.672
			c-0.435,1.358,0.313,2.81,1.672,3.244C505.072,713.962,506.527,713.213,506.962,711.856z"/>
		<path style="fill:#C16256;" d="M527.822,704.786c0.435-1.358-0.313-2.81-1.672-3.244c-1.359-0.434-2.813,0.315-3.249,1.672
			c-0.435,1.357,0.313,2.81,1.672,3.244C525.932,706.893,527.387,706.144,527.822,704.786z"/>
		<path style="fill:#C16256;" d="M524.754,727.926c-1.465,0.42-3.004,0.585-4.359,0.381c-0.535-0.079-0.901-0.579-0.821-1.11
			c0.079-0.537,0.587-0.897,1.112-0.82c3.401,0.51,7.722-1.849,8.114-3.415c0.137-0.551-0.638-0.949-1.313-1.183
			c-5.95-2.074-11.294-11.825-11.518-12.238c-0.257-0.475-0.082-1.067,0.393-1.325c0.491-0.268,1.069-0.08,1.326,0.392
			c0.052,0.094,5.206,9.499,10.443,11.325c2.855,0.996,2.745,2.778,2.566,3.499C530.229,725.31,527.627,727.103,524.754,727.926z"/>
		<path style="fill:#E57D61;" d="M519.262,682.773c-15.012-5.039-39.009,5.67-51.336,7.574c0,0,6.038,20.626-12.777,39.076
			c1.349,19.649-0.462,28.617,23.265,48.996l-0.007,0.002c-1.645-0.686-3.224-1.471-4.756-2.37l-0.02,0.006
			C402.492,724.977,465.298,607.845,519.262,682.773z"/>
		<path style="fill:#C92828;" d="M443.066,678.432c-29.076,19.355-7.875,51.394-7.875,51.394l15.431-4.419
			c15.611-17.465,11.59-38.753,11.59-38.753l-0.005-0.003c4.04-0.454,8.233-1.313,11.815-2.875
			c11.1-4.841,40.559-4.692,37.163-16.811C507.38,653.39,440.173,662.802,443.066,678.432z"/>
		<path style="fill:#F99370;" d="M435.011,742.872c3.014,7.802,10.553,12.16,16.839,9.733c6.285-2.427,8.937-10.719,5.923-18.521
			c-3.014-7.802-10.553-12.16-16.839-9.733C434.649,726.777,431.997,735.069,435.011,742.872z"/>
		<path style="fill:#C16256;" d="M448.72,729.659c-0.268-0.056-6.608-1.39-9.457,2.259c-0.726,0.928-1.122,2.089-1.231,3.447
			c-0.001,0.003,0,0.006-0.001,0.009c-0.01,0.127-0.035,0.243-0.04,0.374c0,0.002-0.001,0.004-0.001,0.006
			c0,0.001,0.001,0.001,0,0.001c-0.088,2.511,0.811,5.701,2.702,9.552c0.213,0.429,0.701,0.636,1.148,0.508
			c0.054-0.016,0.107-0.037,0.162-0.062c0.484-0.238,0.685-0.826,0.447-1.309c-1.535-3.121-2.35-5.729-2.477-7.777
			c5.724,0.091,9.525,5.865,9.563,5.928c0.238,0.375,0.69,0.534,1.097,0.417c0.086-0.025,0.171-0.065,0.252-0.116
			c0.458-0.286,0.593-0.889,0.306-1.346c-0.185-0.289-4.349-6.755-11.075-6.899c0.142-0.584,0.355-1.106,0.683-1.527
			c2.093-2.682,7.456-1.565,7.505-1.554c0.534,0.11,1.046-0.225,1.163-0.751C449.581,730.293,449.246,729.775,448.72,729.659z"/>
		<path style="fill:#F4D4BE;" d="M602.253,1079.336c0,0-2.635,7.629-21.774,17.394c-19.138,9.764-70.646,16.957-70.646,16.957
			s-6.488-4.868-10.411-12.638c0,0-2.278,7.713-9.864,12.638c0,0-56.942,1.802-118.669-34.35c0,0-4.004-2.379,1.471-11.948
			L602.253,1079.336z"/>
		<path style="fill:#FDFFDE;" d="M460.218,744.237l-8.843-5.524c-0.044-0.39-0.122-0.782-0.277-1.164
			c-0.913-2.246-3.475-3.327-5.725-2.414c-2.249,0.913-3.333,3.473-2.419,5.719c0.887,2.185,3.334,3.251,5.537,2.469l8.838,5.522
			c0.68,0.425,1.478,0.513,2.192,0.308c0.625-0.179,1.187-0.579,1.557-1.171C461.876,746.709,461.491,745.031,460.218,744.237z"/>
		<path style="fill:#3A72AA;" d="M602.253,1079.336c0,0-121.723,38.291-229.892-11.948c0,0-9.624-16.5,12.329-93.092
			c8.057-28.111,3.954-68.153,6.151-82.043c12.148-76.794,81.532-93.063,81.532-93.063c8.163,19.185,23.244,20.776,31.279,16.958
			c9.633-4.577,6.476-15.745,6.181-16.937c39.021,11.978,72.474,44.487,83.677,111.397
			C600.231,950.753,608.789,1038.359,602.253,1079.336z"/>
		<path style="fill:#A523A2;" d="M664.392,856.899c-0.496,0.364-1.069,0.849-1.742,1.477
			C663.235,857.891,663.808,857.406,664.392,856.899z"/>
		<path style="fill:#A523A2;" d="M329.502,837.145c0.32,0.441,0.639,0.882,0.981,1.323
			C330.163,837.983,329.832,837.542,329.502,837.145z"/>
		<path style="fill:#F4D4BE;" d="M528.541,799.19c0,0,4.113,22.587-12.69,31.594c0,0-7.985-0.938-13.933-7.889
			c0,0-2.839,6.763-11.298,9.39c0,0-27.927-7.505-27.189-37.222c0,0,5.533,1.195,8.942,4.128c0,0,9.975,11.892,26.112,11.705
			c10.513-0.122,11.348-11.684,11.348-11.684S516.991,796.117,528.541,799.19z"/>
		<path style="fill:#F99370;" d="M335.549,522.564c0,0-67.688-15.902-35.455,46.714l16.094-5.757L335.549,522.564z"/>
		<path style="fill:#C16256;" d="M516.364,743.071c-1.743-0.692-3.218-1.788-4.152-3.086c-1.013-1.408-1.288-2.895-0.775-4.188
			c1.024-2.576,4.789-3.417,8.573-1.914c3.785,1.502,5.949,4.697,4.927,7.273l0,0c-0.514,1.293-1.734,2.186-3.436,2.516
			c-0.466,0.09-0.955,0.135-1.458,0.135C518.855,743.808,517.589,743.557,516.364,743.071z M523.407,740.55
			c0.659-1.661-1.174-4.013-4.004-5.135c-2.83-1.123-5.776-0.669-6.435,0.991c-0.299,0.753-0.093,1.683,0.581,2.619
			c0.753,1.046,1.968,1.939,3.422,2.517c1.454,0.577,2.952,0.759,4.217,0.516C522.32,741.837,523.107,741.302,523.407,740.55
			L523.407,740.55z"/>
		<path style="fill:#C16256;" d="M514.269,695.639c0.372,0,0.741-0.167,0.983-0.487c2.7-3.543,8.18-0.733,8.235-0.705
			c0.604,0.316,1.349,0.083,1.666-0.522c0.317-0.604,0.083-1.35-0.521-1.667c-2.542-1.33-8.186-2.75-11.344,1.397
			c-0.413,0.542-0.309,1.317,0.234,1.73C513.745,695.557,514.009,695.639,514.269,695.639z"/>
		<path style="fill:#C16256;" d="M495.145,705.235c0.575,0,1.089-0.404,1.209-0.989c0.447-2.194,1.394-3.768,2.817-4.676
			c2.232-1.426,5.018-0.818,5.046-0.812c0.66,0.156,1.329-0.252,1.487-0.916c0.158-0.664-0.252-1.329-0.916-1.487
			c-0.153-0.036-3.804-0.873-6.946,1.133c-2.009,1.283-3.323,3.391-3.908,6.266c-0.136,0.668,0.296,1.32,0.964,1.456
			C494.982,705.227,495.064,705.235,495.145,705.235z"/>
		<path style="fill:#EABFAC;" d="M408.47,513.023c-2.198-9.06-7.261-15.609-11.31-14.632l0,0l-0.001,0c-0.001,0-0.003,0-0.004,0.001
			c-0.001,0-0.003,0.001-0.004,0.001l-177.997,43.187c-0.001,0-0.003,0-0.004,0c-4.05,0.983-5.55,9.126-3.351,18.19
			c2.199,9.062,7.263,15.612,11.313,14.632l0.001,0.002l178.011-43.19l-0.001-0.003C409.169,530.223,410.668,522.083,408.47,513.023
			z"/>
		
			<rect x="302.541" y="519.511" transform="matrix(0.9718 -0.2358 0.2358 0.9718 -117.6729 88.7181)" style="fill:#EB5648;" width="19.181" height="33.776"/>
		<path style="fill:#F99370;" d="M323.568,574.195c27.006-14.491,19.962-58.757,10.503-41.814
			c0.314,11.481-3.627,15.672-14.764,19.655C310.142,555.987,314.527,578.412,323.568,574.195z"/>
		<path style="fill:#F99370;" d="M327.91,515.713c-1.078-4.064-10.254-9.105-11.435-1.712c-0.308,2.751,2.074,4.172,3.896,5.509
			l-0.084-0.18C323.037,525.129,330.289,520.86,327.91,515.713z"/>
		<path style="fill:#F99370;" d="M319.706,516.757c-1.728-2.34-4.438-4.618-8.158-4.478c-5.811,0.54-4.291,9.694,0.844,9.212
			c-0.106,0.023-0.149-0.048,0.046,0.068c0.187,0.115,0.464,0.373,0.616,0.564c0.007,0.005,0.073,0.098-0.018-0.031
			C317.182,527.35,322.925,520.87,319.706,516.757z"/>
		<path style="fill:#F99370;" d="M311.083,517.595l-3.533-2.754c-5.696-3.688-8.724,4.856-4.707,7.424
			c-0.001,0,3.532,2.754,3.532,2.754C312.072,528.706,315.1,520.163,311.083,517.595z"/>
		<path style="fill:#F99370;" d="M303.677,519.419l-3.533-2.754c-5.696-3.688-8.724,4.855-4.707,7.423c0,0,3.532,2.754,3.532,2.754
			C304.666,530.53,307.694,521.987,303.677,519.419z"/>
		<path style="fill:#10325B;" d="M505.738,682.99c0,0-42.411-14.673-74.444,39.133l-11.682-32.848c0,0,10.506-49.975,74.556-45.921
			l30.336,31.397C524.505,674.75,509.773,675.823,505.738,682.99z"/>
		<path style="fill:#10325B;" d="M406.058,714.715c-0.001,0-0.003,0-0.004,0c-0.305-0.002-0.549-0.251-0.547-0.556l0.369-44.227
			c0.002-0.303,0.249-0.547,0.551-0.547c0.001,0,0.003,0,0.004,0c0.305,0.002,0.549,0.251,0.547,0.556l-0.369,44.227
			C406.607,714.471,406.36,714.715,406.058,714.715z"/>
		<path style="fill:#10325B;" d="M404.711,743.325c-0.008,0-0.016,0-0.024,0c-0.304-0.013-0.54-0.271-0.527-0.575l0.92-21.109
			l-3.244,19.981c-0.048,0.3-0.331,0.507-0.632,0.456c-0.3-0.049-0.504-0.332-0.456-0.632l4.747-29.241
			c0.046-0.288,0.308-0.489,0.6-0.46c0.29,0.03,0.507,0.281,0.495,0.572l-1.329,30.481
			C405.248,743.094,405.004,743.325,404.711,743.325z"/>
		<path style="fill:#10325B;" d="M408.522,743.391c-0.284,0-0.525-0.218-0.549-0.507l-2.484-30.547
			c-0.024-0.292,0.185-0.551,0.476-0.591c0.286-0.04,0.561,0.156,0.615,0.443l5.572,29.327c0.057,0.299-0.14,0.588-0.438,0.644
			c-0.298,0.054-0.588-0.14-0.645-0.438l-3.645-19.181l1.647,20.253c0.025,0.303-0.201,0.569-0.505,0.594
			C408.552,743.391,408.537,743.391,408.522,743.391z"/>
		<path style="fill:#10325B;" d="M414.789,740.498c-0.234,0-0.451-0.15-0.525-0.385l-8.193-25.894l-7.235,25.739
			c-0.083,0.293-0.391,0.461-0.68,0.382c-0.294-0.083-0.464-0.387-0.382-0.68l7.735-27.516c0.066-0.235,0.278-0.398,0.522-0.402
			c0.243,0.01,0.461,0.153,0.534,0.385l8.75,27.653c0.092,0.291-0.069,0.6-0.359,0.692
			C414.899,740.489,414.843,740.498,414.789,740.498z"/>
		<path style="fill:#10325B;" d="M410.152,743.325c-0.272,0-0.508-0.201-0.546-0.477l-4.114-30.481
			c-0.039-0.289,0.154-0.558,0.44-0.615c0.286-0.057,0.566,0.12,0.64,0.402l7.491,28.753c0.077,0.295-0.1,0.596-0.394,0.672
			c-0.296,0.076-0.596-0.1-0.672-0.394l-5.192-19.927l2.894,21.443c0.04,0.302-0.171,0.579-0.473,0.62
			C410.202,743.324,410.177,743.325,410.152,743.325z"/>
		<path style="fill:#10325B;" d="M402.89,743.004c-0.019,0-0.038-0.001-0.058-0.003c-0.303-0.032-0.522-0.303-0.491-0.605
			l2.13-20.393l-4.193,19.091c-0.065,0.297-0.358,0.485-0.657,0.42c-0.297-0.065-0.485-0.359-0.42-0.657l6.3-28.682
			c0.064-0.286,0.341-0.473,0.627-0.426c0.288,0.046,0.491,0.311,0.46,0.601l-3.15,30.16
			C403.408,742.793,403.168,743.004,402.89,743.004z"/>
		<path style="fill:#10325B;" d="M406.546,743.778c-0.3,0-0.546-0.241-0.551-0.542l-0.507-30.934
			c-0.005-0.305,0.238-0.555,0.542-0.56c0.003,0,0.006,0,0.009,0c0.3,0,0.546,0.241,0.551,0.542l0.507,30.934
			c0.005,0.305-0.238,0.555-0.542,0.561C406.552,743.778,406.549,743.778,406.546,743.778z"/>
		<path style="fill:#1D3F70;" d="M748.148,787.966c-3.23,5.082-6.57,9.965-10.02,14.65c-18.519,25.255-39.728,44.854-59.978,59.835
			l-0.011,0.011l-0.011,0.011c-42.793,31.626-81.342,42.617-81.342,42.617s20.492,112.538,28.088,233.288
			c6.096,96.741,12.181,268.287,14.363,332.653c0.54,15.973,0.838,25.343,0.838,25.343c-178.16,38.846-298.293-5.06-298.293-5.06
			s0.033-8.268,0.154-22.532c0.551-63.473,2.789-245.634,11.068-345.605c10.13-122.426,22.587-218.087,22.587-218.087
			c-24.869-15.786-45.879-40.081-62.944-65.655c-0.011-0.033-0.011-0.044-0.011-0.044c-22.091-33.158-37.479-68.455-45.879-90.127
			c-4.972-12.82-7.485-20.867-7.485-20.867c22.807-78.156,76.282-96.587,76.282-96.587s3.296,5.148,8.201,14
			c7.154,12.953,17.759,33.842,26.5,58.193c14.738,40.996,54.026,70.263,54.026,70.263l88.551,135.764l55.723-114.963
			c52.284-19.379,96.73-57.972,117.157-77.66c7.705-7.43,11.994-12.17,11.994-12.17
			C708.905,756.747,748.148,787.966,748.148,787.966z"/>
		<path style="fill:#FBB03B;" d="M463.43,795.063c0,0,26.94,55.183,47.754,98.77l17.356-94.642c0,0,25.911-7.167,40.015-4.128
			l-55.52,137.947c0,0-73.197-84.645-88.754-158.748C424.282,774.262,451.432,781.891,463.43,795.063z"/>
		<path style="fill:#10325B;" d="M343.755,645.808l-0.011,0.011c0,0-51.49,27.856-76.987,103.444
			c-4.972-12.82-7.485-20.867-7.485-20.867c22.807-78.156,76.282-96.587,76.282-96.587S338.849,636.956,343.755,645.808z"/>
		<path style="fill:#10325B;" d="M748.148,787.966c-3.23,5.082-6.57,9.965-10.02,14.65c-44.072-30.678-52.416-85.211-52.416-85.211
			c7.705-7.43,11.994-12.17,11.994-12.17C708.905,756.747,748.148,787.966,748.148,787.966z"/>
		<path style="fill:#10325B;" d="M386.492,855.826l-10.902,49.263c-24.869-15.786-45.879-40.081-62.944-65.655
			c-0.011-0.033-0.011-0.044-0.011-0.044C354.172,891.09,386.492,855.826,386.492,855.826z"/>
		<path style="fill:#10325B;" d="M678.127,862.473c-42.793,31.626-81.342,42.617-81.342,42.617l-8.411-32.85
			C588.375,872.24,617.984,891.63,678.127,862.473z"/>
		<path style="fill:#10325B;" d="M640.075,1496.373c-178.16,38.846-298.293-5.06-298.293-5.06s0.033-8.268,0.154-22.532
			c0,0,153.765,41.624,297.301,2.249C639.777,1487.003,640.075,1496.373,640.075,1496.373z"/>
	</g>
</g>
</svg>
